# Blender v2.76 (sub 0) OBJ File: ''
# www.blender.org
mtllib Crystal4.mtl
o Crystal4_Cube.005
v 0.231425 0.272568 0.295285
v 0.148716 0.421674 0.074512
v 0.229979 0.123255 0.182833
v 0.279143 0.056276 0.408796
v 0.403338 0.307055 0.170708
v 0.450289 0.076509 0.254075
v 0.408191 0.195351 0.365302
v 0.484596 -0.035550 0.505028
vt 0.000000 0.000000
vt 1.000000 0.000000
vt 1.000000 1.000000
vt 0.000000 1.000000
vn -0.965600 -0.150500 0.212200
vn 0.232800 -0.281000 -0.931100
vn 0.957000 0.284200 0.058600
vn -0.184300 0.445100 0.876300
vn -0.177800 -0.931100 -0.318400
vn 0.187400 0.849200 0.493700
usemtl Material.001
#s 1
f 1/1/1 2/2/1 3/3/1 4/4/1
f 2/1/2 5/2/2 6/3/2 3/4/2
f 5/1/3 7/2/3 8/3/3 6/4/3
f 7/1/4 1/2/4 4/3/4 8/4/4
f 4/1/5 3/2/5 6/3/5 8/4/5
f 7/1/6 5/2/6 2/3/6 1/4/6
