# Blender v2.76 (sub 0) OBJ File: ''
# www.blender.org
mtllib Crystal5.mtl
o Crystal5_Cube.006
v 0.349231 0.423691 0.937667
v 0.305391 0.245339 0.724533
v 0.367605 0.076317 0.717276
v 0.460587 0.191248 0.826603
v 0.391454 0.159733 0.568418
v 0.492172 -0.045920 0.485475
v 0.470717 0.292579 0.676822
v 0.542313 0.166856 0.649094
vt 0.000000 0.000000
vt 1.000000 0.000000
vt 1.000000 1.000000
vt 0.000000 1.000000
vn -0.594700 -0.452900 0.664200
vn -0.894900 -0.312500 -0.318500
vn 0.398800 0.470300 -0.787300
vn 0.892800 0.342800 0.292300
vn 0.544200 -0.664400 0.512300
vn -0.373400 0.733900 -0.567400
usemtl Material.001
#s 1
f 1/1/1 2/2/1 3/3/1 4/4/1
f 2/1/2 5/2/2 6/3/2 3/4/2
f 5/1/3 7/2/3 8/3/3 6/4/3
f 7/1/4 1/2/4 4/3/4 8/4/4
f 4/1/5 3/2/5 6/3/5 8/4/5
f 7/1/6 5/2/6 2/3/6 1/4/6
