# Blender v2.76 (sub 0) OBJ File: 'CrystalEdited.blend'
# www.blender.org
mtllib Crystal7.mtl
o Crystal7_Cube.008
v 0.483178 -0.044230 -0.503730
v 0.679569 0.173016 -0.462786
v 0.647951 0.146157 -0.608191
v 0.753542 0.268537 -0.557264
v 0.709441 0.067096 -0.524616
v 0.798431 0.176811 -0.464488
v 0.777536 0.161952 -0.600723
v 0.932224 0.344260 -0.549324
vt 0.000000 0.000000
vt 1.000000 0.000000
vt 1.000000 1.000000
vt 0.000000 1.000000
vn -0.752300 0.657500 0.042100
vn -0.061900 0.364900 -0.929000
vn 0.776200 -0.628400 -0.050500
vn 0.206700 -0.449100 0.869200
vn 0.198600 -0.634800 -0.746700
vn -0.189400 0.650900 0.735200
usemtl Material.001
#s off
f 2/1/1 4/2/1 3/3/1 1/4/1
f 4/1/2 8/2/2 7/3/2 3/4/2
f 8/1/3 6/2/3 5/3/3 7/4/3
f 6/1/4 2/2/4 1/3/4 5/4/4
f 1/1/5 3/2/5 7/3/5 5/4/5
f 6/1/6 8/2/6 4/3/6 2/4/6
