# Blender v2.76 (sub 0) OBJ File: 'CrystalEdited.blend'
# www.blender.org
mtllib Crystal6.mtl
o Crystal6_Cube.007
v 0.335860 0.041917 -0.420094
v 0.239487 0.278413 -0.383462
v 0.189094 0.113959 -0.464284
v 0.028163 0.346273 -0.473638
v 0.490528 -0.046537 -0.503165
v 0.393389 0.239035 -0.477655
v 0.320816 0.037582 -0.548768
v 0.235427 0.257442 -0.578378
vt 0.000000 0.000000
vt 1.000000 0.000000
vt 1.000000 1.000000
vt 0.000000 1.000000
vn -0.432900 -0.287300 0.854500
vn -0.585200 -0.380500 -0.716100
vn 0.442400 0.152600 -0.883700
vn 0.524900 0.093900 0.846000
vn -0.459900 -0.884000 0.083600
vn 0.279000 0.954200 -0.108500
usemtl Material.001
#s off
f 2/1/1 4/2/1 3/3/1 1/4/1
f 4/1/2 8/2/2 7/3/2 3/4/2
f 8/1/3 6/2/3 5/3/3 7/4/3
f 6/1/4 2/2/4 1/3/4 5/4/4
f 1/1/5 3/2/5 7/3/5 5/4/5
f 6/1/6 8/2/6 4/3/6 2/4/6
