# Blender v2.76 (sub 0) OBJ File: ''
# www.blender.org
mtllib ModelMasterRoutingNodeCore.mtl
o ModelMasterRoutingNodeCore
v 0.343750 0.656250 0.656250
v 0.343750 0.343750 0.656250
v 0.656250 0.343750 0.656250
v 0.656250 0.656250 0.656250
v 0.656250 0.656250 0.343750
v 0.656250 0.343750 0.343750
v 0.343750 0.343750 0.343750
v 0.343750 0.656250 0.343750
v 0.406250 0.593750 0.593750
v 0.406250 0.406250 0.593750
v 0.593750 0.406250 0.593750
v 0.593750 0.593750 0.593750
v 0.593750 0.593750 0.406250
v 0.593750 0.406250 0.406250
v 0.406250 0.406250 0.406250
v 0.406250 0.593750 0.406250
vt 0.078125 0.921875
vt 0.078125 0.843750
vt 0.156250 0.843750
vt 0.156250 0.921875
vt 0.234375 0.921875
vt 0.234375 0.843750
vt 0.312500 0.843750
vt 0.312500 0.921875
vt 0.078125 1.000000
vt 0.156250 1.000000
vt 0.234375 1.000000
vt 0.000000 0.921875
vt 0.000000 0.843750
vt 0.046875 0.781250
vt 0.046875 0.734375
vt 0.093750 0.734375
vt 0.093750 0.781250
vt 0.140625 0.781250
vt 0.140625 0.734375
vt 0.187500 0.734375
vt 0.187500 0.781250
vt 0.046875 0.828125
vt 0.093750 0.828125
vt 0.140625 0.828125
vt 0.000000 0.781250
vt 0.000000 0.734375
vn 0.000000 -0.000000 1.000000
vn 0.000000 0.000000 -1.000000
vn 0.000000 1.000000 0.000000
vn 0.000000 -1.000000 -0.000000
vn 1.000000 0.000000 0.000000
vn -1.000000 0.000000 0.000000
usemtl None
#s 1
f 1/1/1 2/2/1 3/3/1 4/4/1
f 5/5/2 6/6/2 7/7/2 8/8/2
f 8/9/3 1/1/3 4/4/3 5/10/3
f 2/5/4 7/11/4 6/10/4 3/4/4
f 5/5/5 4/4/5 3/3/5 6/6/5
f 8/12/6 7/13/6 2/2/6 1/1/6
f 9/14/1 10/15/1 11/16/1 12/17/1
f 13/18/2 14/19/2 15/20/2 16/21/2
f 16/22/3 9/14/3 12/17/3 13/23/3
f 10/18/4 15/24/4 14/23/4 11/17/4
f 13/18/5 12/17/5 11/16/5 14/19/5
f 16/25/6 15/26/6 10/15/6 9/14/6
