# Blender v2.76 (sub 0) OBJ File: ''
# www.blender.org
mtllib ModelMasterRoutingNodeBase.mtl
o ModelMasterRoutingNodeBase
v 0.250000 0.062500 0.750000
v 0.250000 -0.000000 0.750000
v 0.750000 -0.000000 0.750000
v 0.750000 0.062500 0.750000
v 0.750000 0.062500 0.250000
v 0.750000 0.000000 0.250000
v 0.250000 0.000000 0.250000
v 0.250000 0.062500 0.250000
v 0.362465 0.389996 0.531250
v 0.278129 0.024602 0.531250
v 0.339027 0.010546 0.531250
v 0.423364 0.375940 0.531250
v 0.423364 0.375940 0.468750
v 0.339027 0.010546 0.468750
v 0.278129 0.024602 0.468750
v 0.362465 0.389996 0.468750
v 0.468750 0.375964 0.423360
v 0.468750 0.010578 0.339023
v 0.531250 0.010578 0.339023
v 0.531250 0.375964 0.423360
v 0.531250 0.390020 0.362462
v 0.531250 0.024634 0.278126
v 0.468750 0.024634 0.278126
v 0.468750 0.390020 0.362462
v 0.468750 0.389996 0.637535
v 0.468750 0.024602 0.721871
v 0.531250 0.024602 0.721871
v 0.531250 0.389996 0.637535
v 0.531250 0.375940 0.576636
v 0.531250 0.010546 0.660972
v 0.468750 0.010546 0.660972
v 0.468750 0.375940 0.576636
v 0.576640 0.375964 0.531250
v 0.660976 0.010578 0.531250
v 0.721874 0.024634 0.531250
v 0.637538 0.390020 0.531250
v 0.637538 0.390020 0.468750
v 0.721874 0.024634 0.468750
v 0.660976 0.010578 0.468750
v 0.576640 0.375964 0.468750
v 0.375000 0.156250 0.625000
v 0.375000 0.031250 0.625000
v 0.625000 0.031250 0.625000
v 0.625000 0.156250 0.625000
v 0.625000 0.156250 0.375000
v 0.625000 0.031250 0.375000
v 0.375000 0.031250 0.375000
v 0.375000 0.156250 0.375000
v 0.437500 0.250000 0.562500
v 0.437500 0.125000 0.562500
v 0.562500 0.125000 0.562500
v 0.562500 0.250000 0.562500
v 0.562500 0.250000 0.437500
v 0.562500 0.125000 0.437500
v 0.437500 0.125000 0.437500
v 0.437500 0.250000 0.437500
v 0.468750 0.343750 0.531250
v 0.468750 0.218750 0.531250
v 0.531250 0.218750 0.531250
v 0.531250 0.343750 0.531250
v 0.531250 0.343750 0.468750
v 0.531250 0.218750 0.468750
v 0.468750 0.218750 0.468750
v 0.468750 0.343750 0.468750
v 0.362465 0.389996 0.531250
v 0.278129 0.024602 0.531250
v 0.339027 0.010546 0.531250
v 0.423364 0.375940 0.531250
v 0.423364 0.375940 0.468750
v 0.339027 0.010546 0.468750
v 0.278129 0.024602 0.468750
v 0.362465 0.389996 0.468750
v 0.468750 0.375964 0.423360
v 0.468750 0.010578 0.339023
v 0.531250 0.010578 0.339023
v 0.531250 0.375964 0.423360
v 0.531250 0.390020 0.362462
v 0.531250 0.024634 0.278126
v 0.468750 0.024634 0.278126
v 0.468750 0.390020 0.362462
v 0.468750 0.389996 0.637535
v 0.468750 0.024602 0.721871
v 0.531250 0.024602 0.721871
v 0.531250 0.389996 0.637535
v 0.531250 0.375940 0.576636
v 0.531250 0.010546 0.660972
v 0.468750 0.010546 0.660972
v 0.468750 0.375940 0.576636
v 0.576640 0.375964 0.531250
v 0.660976 0.010578 0.531250
v 0.721874 0.024634 0.531250
v 0.637538 0.390020 0.531250
v 0.637538 0.390020 0.468750
v 0.721874 0.024634 0.468750
v 0.660976 0.010578 0.468750
v 0.576640 0.375964 0.468750
v 0.375000 0.156250 0.625000
v 0.375000 0.031250 0.625000
v 0.625000 0.031250 0.625000
v 0.625000 0.156250 0.625000
v 0.625000 0.156250 0.375000
v 0.625000 0.031250 0.375000
v 0.375000 0.031250 0.375000
v 0.375000 0.156250 0.375000
v 0.437500 0.250000 0.562500
v 0.437500 0.125000 0.562500
v 0.562500 0.125000 0.562500
v 0.562500 0.250000 0.562500
v 0.562500 0.250000 0.437500
v 0.562500 0.125000 0.437500
v 0.437500 0.125000 0.437500
v 0.437500 0.250000 0.437500
v 0.468750 0.343750 0.531250
v 0.468750 0.218750 0.531250
v 0.531250 0.218750 0.531250
v 0.531250 0.343750 0.531250
v 0.531250 0.343750 0.468750
v 0.531250 0.218750 0.468750
v 0.468750 0.218750 0.468750
v 0.468750 0.343750 0.468750
v 0.437500 0.250000 0.562500
v 0.437500 0.125000 0.562500
v 0.562500 0.125000 0.562500
v 0.562500 0.250000 0.562500
v 0.562500 0.250000 0.437500
v 0.562500 0.125000 0.437500
v 0.437500 0.125000 0.437500
v 0.437500 0.250000 0.437500
v 0.468750 0.343750 0.531250
v 0.468750 0.218750 0.531250
v 0.531250 0.218750 0.531250
v 0.531250 0.343750 0.531250
v 0.531250 0.343750 0.468750
v 0.531250 0.218750 0.468750
v 0.468750 0.218750 0.468750
v 0.468750 0.343750 0.468750
v 0.468750 0.343750 0.531250
v 0.468750 0.218750 0.531250
v 0.531250 0.218750 0.531250
v 0.531250 0.343750 0.531250
v 0.531250 0.343750 0.468750
v 0.531250 0.218750 0.468750
v 0.468750 0.218750 0.468750
v 0.468750 0.343750 0.468750
vt 0.140625 0.515625
vt 0.140625 0.500000
vt 0.265625 0.500000
vt 0.265625 0.515625
vt 0.390625 0.515625
vt 0.390625 0.500000
vt 0.515625 0.500000
vt 0.515625 0.515625
vt 0.140625 0.640625
vt 0.265625 0.640625
vt 0.390625 0.640625
vt 0.015625 0.515625
vt 0.015625 0.500000
vt 0.093750 0.625000
vt 0.093750 0.531250
vt 0.109375 0.531250
vt 0.109375 0.625000
vt 0.125000 0.625000
vt 0.125000 0.531250
vt 0.140625 0.531250
vt 0.140625 0.625000
vt 0.093750 0.640625
vt 0.109375 0.640625
vt 0.125000 0.640625
vt 0.078125 0.625000
vt 0.078125 0.531250
vt 0.046875 0.625000
vt 0.046875 0.531250
vt 0.062500 0.531250
vt 0.062500 0.625000
vt 0.046875 0.640625
vt 0.062500 0.640625
vt 0.078125 0.640625
vt 0.031250 0.625000
vt 0.031250 0.531250
vt 0.015625 0.625000
vt 0.015625 0.531250
vt 0.015625 0.640625
vt 0.031250 0.640625
vt 0.000000 0.625000
vt 0.000000 0.531250
vt 0.593750 0.531250
vt 0.593750 0.500000
vt 0.656250 0.500000
vt 0.656250 0.531250
vt 0.718750 0.531250
vt 0.718750 0.500000
vt 0.781250 0.500000
vt 0.781250 0.531250
vt 0.593750 0.593750
vt 0.656250 0.593750
vt 0.718750 0.593750
vt 0.531250 0.531250
vt 0.531250 0.500000
vt 0.828125 0.531250
vt 0.828125 0.500000
vt 0.859375 0.500000
vt 0.859375 0.531250
vt 0.890625 0.531250
vt 0.890625 0.500000
vt 0.921875 0.500000
vt 0.921875 0.531250
vt 0.828125 0.562500
vt 0.859375 0.562500
vt 0.890625 0.562500
vt 0.796875 0.531250
vt 0.796875 0.500000
vt 0.953125 0.531250
vt 0.953125 0.500000
vt 0.968750 0.500000
vt 0.968750 0.531250
vt 0.984375 0.531250
vt 0.984375 0.500000
vt 1.000000 0.500000
vt 1.000000 0.531250
vt 0.953125 0.546875
vt 0.968750 0.546875
vt 0.984375 0.546875
vt 0.937500 0.531250
vt 0.937500 0.500000
vn 0.000000 0.000000 1.000000
vn 0.000000 0.000000 -1.000000
vn 0.000000 1.000000 0.000000
vn 0.000000 -1.000000 -0.000000
vn 1.000000 0.000000 0.000000
vn -1.000000 0.000000 0.000000
vn 0.224900 0.974400 0.000000
vn -0.224900 -0.974400 -0.000000
vn 0.974400 -0.224900 0.000000
vn -0.974400 0.224900 0.000000
vn 0.000000 -0.224900 0.974400
vn 0.000000 0.224900 -0.974400
vn 0.000000 0.974400 0.224900
vn 0.000000 -0.974400 -0.224900
vn 0.000000 0.224900 0.974400
vn 0.000000 -0.224900 -0.974400
vn 0.000000 0.974400 -0.224900
vn 0.000000 -0.974400 0.224900
vn -0.224900 0.974400 0.000000
vn 0.224900 -0.974400 -0.000000
vn 0.974400 0.224900 0.000000
vn -0.974400 -0.224900 0.000000
usemtl None
#s 1
f 1/1/1 2/2/1 3/3/1 4/4/1
f 5/5/2 6/6/2 7/7/2 8/8/2
f 8/9/3 1/1/3 4/4/3 5/10/3
f 2/5/4 7/11/4 6/10/4 3/4/4
f 5/5/5 4/4/5 3/3/5 6/6/5
f 8/12/6 7/13/6 2/2/6 1/1/6
f 9/14/1 10/15/1 11/16/1 12/17/1
f 13/18/2 14/19/2 15/20/2 16/21/2
f 16/22/7 9/14/7 12/17/7 13/23/7
f 10/18/8 15/24/8 14/23/8 11/17/8
f 13/18/9 12/17/9 11/16/9 14/19/9
f 16/25/10 15/26/10 10/15/10 9/14/10
f 17/27/11 18/28/11 19/29/11 20/30/11
f 21/25/12 22/26/12 23/15/12 24/14/12
f 24/31/13 17/27/13 20/30/13 21/32/13
f 18/25/14 23/33/14 22/32/14 19/30/14
f 21/25/5 20/30/5 19/29/5 22/26/5
f 24/34/6 23/35/6 18/28/6 17/27/6
f 25/36/15 26/37/15 27/35/15 28/34/15
f 29/27/16 30/28/16 31/29/16 32/30/16
f 32/38/17 25/36/17 28/34/17 29/39/17
f 26/27/18 31/31/18 30/39/18 27/34/18
f 29/27/5 28/34/5 27/35/5 30/28/5
f 32/40/6 31/41/6 26/37/6 25/36/6
f 33/30/1 34/29/1 35/26/1 36/25/1
f 37/14/2 38/15/2 39/16/2 40/17/2
f 40/32/19 33/30/19 36/25/19 37/33/19
f 34/14/20 39/22/20 38/33/20 35/25/20
f 37/14/21 36/25/21 35/26/21 38/15/21
f 40/27/22 39/28/22 34/29/22 33/30/22
f 41/42/1 42/43/1 43/44/1 44/45/1
f 45/46/2 46/47/2 47/48/2 48/49/2
f 48/50/3 41/42/3 44/45/3 45/51/3
f 42/46/4 47/52/4 46/51/4 43/45/4
f 45/46/5 44/45/5 43/44/5 46/47/5
f 48/53/6 47/54/6 42/43/6 41/42/6
f 49/55/1 50/56/1 51/57/1 52/58/1
f 53/59/2 54/60/2 55/61/2 56/62/2
f 56/63/3 49/55/3 52/58/3 53/64/3
f 50/59/4 55/65/4 54/64/4 51/58/4
f 53/59/5 52/58/5 51/57/5 54/60/5
f 56/66/6 55/67/6 50/56/6 49/55/6
f 57/68/1 58/69/1 59/70/1 60/71/1
f 61/72/2 62/73/2 63/74/2 64/75/2
f 64/76/3 57/68/3 60/71/3 61/77/3
f 58/72/4 63/78/4 62/77/4 59/71/4
f 61/72/5 60/71/5 59/70/5 62/73/5
f 64/79/6 63/80/6 58/69/6 57/68/6
f 65/14/1 66/15/1 67/16/1 68/17/1
f 69/18/2 70/19/2 71/20/2 72/21/2
f 72/22/7 65/14/7 68/17/7 69/23/7
f 66/18/8 71/24/8 70/23/8 67/17/8
f 69/18/9 68/17/9 67/16/9 70/19/9
f 72/25/10 71/26/10 66/15/10 65/14/10
f 73/27/11 74/28/11 75/29/11 76/30/11
f 77/25/12 78/26/12 79/15/12 80/14/12
f 80/31/13 73/27/13 76/30/13 77/32/13
f 74/25/14 79/33/14 78/32/14 75/30/14
f 77/25/5 76/30/5 75/29/5 78/26/5
f 80/34/6 79/35/6 74/28/6 73/27/6
f 81/36/15 82/37/15 83/35/15 84/34/15
f 85/27/16 86/28/16 87/29/16 88/30/16
f 88/38/17 81/36/17 84/34/17 85/39/17
f 82/27/18 87/31/18 86/39/18 83/34/18
f 85/27/5 84/34/5 83/35/5 86/28/5
f 88/40/6 87/41/6 82/37/6 81/36/6
f 89/30/1 90/29/1 91/26/1 92/25/1
f 93/14/2 94/15/2 95/16/2 96/17/2
f 96/32/19 89/30/19 92/25/19 93/33/19
f 90/14/20 95/22/20 94/33/20 91/25/20
f 93/14/21 92/25/21 91/26/21 94/15/21
f 96/27/22 95/28/22 90/29/22 89/30/22
f 97/42/1 98/43/1 99/44/1 100/45/1
f 101/46/2 102/47/2 103/48/2 104/49/2
f 104/50/3 97/42/3 100/45/3 101/51/3
f 98/46/4 103/52/4 102/51/4 99/45/4
f 101/46/5 100/45/5 99/44/5 102/47/5
f 104/53/6 103/54/6 98/43/6 97/42/6
f 105/55/1 106/56/1 107/57/1 108/58/1
f 109/59/2 110/60/2 111/61/2 112/62/2
f 112/63/3 105/55/3 108/58/3 109/64/3
f 106/59/4 111/65/4 110/64/4 107/58/4
f 109/59/5 108/58/5 107/57/5 110/60/5
f 112/66/6 111/67/6 106/56/6 105/55/6
f 113/68/1 114/69/1 115/70/1 116/71/1
f 117/72/2 118/73/2 119/74/2 120/75/2
f 120/76/3 113/68/3 116/71/3 117/77/3
f 114/72/4 119/78/4 118/77/4 115/71/4
f 117/72/5 116/71/5 115/70/5 118/73/5
f 120/79/6 119/80/6 114/69/6 113/68/6
f 121/55/1 122/56/1 123/57/1 124/58/1
f 125/59/2 126/60/2 127/61/2 128/62/2
f 128/63/3 121/55/3 124/58/3 125/64/3
f 122/59/4 127/65/4 126/64/4 123/58/4
f 125/59/5 124/58/5 123/57/5 126/60/5
f 128/66/6 127/67/6 122/56/6 121/55/6
f 129/68/1 130/69/1 131/70/1 132/71/1
f 133/72/2 134/73/2 135/74/2 136/75/2
f 136/76/3 129/68/3 132/71/3 133/77/3
f 130/72/4 135/78/4 134/77/4 131/71/4
f 133/72/5 132/71/5 131/70/5 134/73/5
f 136/79/6 135/80/6 130/69/6 129/68/6
f 137/68/1 138/69/1 139/70/1 140/71/1
f 141/72/2 142/73/2 143/74/2 144/75/2
f 144/76/3 137/68/3 140/71/3 141/77/3
f 138/72/4 143/78/4 142/77/4 139/71/4
f 141/72/5 140/71/5 139/70/5 142/73/5
f 144/79/6 143/80/6 138/69/6 137/68/6
