# Blender v2.76 (sub 0) OBJ File: ''
# www.blender.org
mtllib BlockIncenseAltar.mtl
o BlockIncenseAltar
v 0.187500 0.187500 0.437500
v 0.187500 -0.000000 0.437500
v 0.437500 -0.000000 0.437500
v 0.437500 0.187500 0.437500
v 0.437500 0.187500 0.187500
v 0.437500 0.000000 0.187500
v 0.187500 0.000000 0.187500
v 0.187500 0.187500 0.187500
v 0.187500 0.187500 -0.187500
v 0.187500 0.000000 -0.187500
v 0.437500 0.000000 -0.187500
v 0.437500 0.187500 -0.187500
v 0.437500 0.187500 -0.437500
v 0.437500 0.000000 -0.437500
v 0.187500 0.000000 -0.437500
v 0.187500 0.187500 -0.437500
v -0.437500 0.187500 0.437500
v -0.437500 -0.000000 0.437500
v -0.187500 -0.000000 0.437500
v -0.187500 0.187500 0.437500
v -0.187500 0.187500 0.187500
v -0.187500 0.000000 0.187500
v -0.437500 0.000000 0.187500
v -0.437500 0.187500 0.187500
v -0.437500 0.187500 -0.187500
v -0.437500 0.000000 -0.187500
v -0.187500 0.000000 -0.187500
v -0.187500 0.187500 -0.187500
v -0.187500 0.187500 -0.437500
v -0.187500 0.000000 -0.437500
v -0.437500 0.000000 -0.437500
v -0.437500 0.187500 -0.437500
v -0.437500 0.250000 0.437500
v -0.437500 0.187500 0.437500
v 0.437500 0.187500 0.437500
v 0.437500 0.250000 0.437500
v 0.437500 0.250000 -0.437500
v 0.437500 0.187500 -0.437500
v -0.437500 0.187500 -0.437500
v -0.437500 0.250000 -0.437500
v 0.089645 1.060173 0.159097
v 0.220088 0.140847 0.029924
v 0.405762 0.166682 0.033554
v 0.275319 1.086007 0.162726
v 0.275319 1.112096 -0.022947
v 0.405762 0.192770 -0.152120
v 0.220088 0.166936 -0.155750
v 0.089645 1.086261 -0.026577
v 0.089645 1.086256 0.026577
v 0.220088 0.166918 0.155749
v 0.405762 0.192753 0.152119
v 0.275319 1.112091 0.022947
v 0.275319 1.086002 -0.162730
v 0.405762 0.166664 -0.033557
v 0.220088 0.140829 -0.029927
v 0.089645 1.060167 -0.159100
v -0.275322 1.112085 0.022947
v -0.405765 0.192735 0.152122
v -0.220089 0.166900 0.155751
v -0.089645 1.086250 0.026577
v -0.089645 1.060161 -0.159099
v -0.220089 0.140811 -0.029925
v -0.405765 0.166646 -0.033555
v -0.275322 1.085996 -0.162729
v -0.275322 1.086001 0.162726
v -0.405765 0.166664 0.033551
v -0.220089 0.140829 0.029921
v -0.089645 1.060167 0.159096
v -0.089645 1.086256 -0.026578
v -0.220089 0.166918 -0.155752
v -0.405765 0.192752 -0.152122
v -0.275322 1.112090 -0.022948
v -0.375000 1.187500 0.375000
v -0.375000 1.125000 0.375000
v -0.187500 1.125000 0.375000
v -0.187500 1.187500 0.375000
v -0.187500 1.187500 -0.375000
v -0.187500 1.125000 -0.375000
v -0.375000 1.125000 -0.375000
v -0.375000 1.187500 -0.375000
v 0.375000 1.187500 0.375000
v 0.375000 1.125000 0.375000
v 0.375000 1.125000 0.187500
v 0.375000 1.187500 0.187500
v -0.375000 1.187500 0.187500
v -0.375000 1.125000 0.187500
v -0.375000 1.125000 0.375000
v -0.375000 1.187500 0.375000
v 0.187500 1.187500 0.375000
v 0.187500 1.125000 0.375000
v 0.375000 1.125000 0.375000
v 0.375000 1.187500 0.375000
v 0.375000 1.187500 -0.375000
v 0.375000 1.125000 -0.375000
v 0.187500 1.125000 -0.375000
v 0.187500 1.187500 -0.375000
v 0.375000 1.187500 -0.187500
v 0.375000 1.125000 -0.187500
v 0.375000 1.125000 -0.375000
v 0.375000 1.187500 -0.375000
v -0.375000 1.187500 -0.375000
v -0.375000 1.125000 -0.375000
v -0.375000 1.125000 -0.187500
v -0.375000 1.187500 -0.187500
v 0.281250 1.250000 0.406250
v 0.281250 1.187500 0.406250
v 0.406250 1.187500 0.406250
v 0.406250 1.250000 0.406250
v 0.406250 1.250000 0.281250
v 0.406250 1.187500 0.281250
v 0.281250 1.187500 0.281250
v 0.281250 1.250000 0.281250
v -0.406250 1.250000 0.406250
v -0.406250 1.187500 0.406250
v -0.281250 1.187500 0.406250
v -0.281250 1.250000 0.406250
v -0.281250 1.250000 0.281250
v -0.281250 1.187500 0.281250
v -0.406250 1.187500 0.281250
v -0.406250 1.250000 0.281250
v 0.281250 1.250000 -0.281250
v 0.281250 1.187500 -0.281250
v 0.406250 1.187500 -0.281250
v 0.406250 1.250000 -0.281250
v 0.406250 1.250000 -0.406250
v 0.406250 1.187500 -0.406250
v 0.281250 1.187500 -0.406250
v 0.281250 1.250000 -0.406250
v -0.406250 1.250000 -0.281250
v -0.406250 1.187500 -0.281250
v -0.281250 1.187500 -0.281250
v -0.281250 1.250000 -0.281250
v -0.281250 1.250000 -0.406250
v -0.281250 1.187500 -0.406250
v -0.406250 1.187500 -0.406250
v -0.406250 1.250000 -0.406250
v -0.156250 1.125000 0.156250
v -0.156250 1.062500 0.156250
v 0.156250 1.062500 0.156250
v 0.156250 1.125000 0.156250
v 0.156250 1.125000 -0.156250
v 0.156250 1.062500 -0.156250
v -0.156250 1.062500 -0.156250
v -0.156250 1.125000 -0.156250
v -0.218750 1.129859 -0.051500
v -0.218750 0.201478 0.078943
v 0.218750 0.201478 0.078943
v 0.218750 1.129859 -0.051500
v 0.218750 1.121163 -0.113392
v 0.218750 0.192782 0.017051
v -0.218750 0.192782 0.017051
v -0.218750 1.121163 -0.113392
v -0.113390 1.121168 -0.218750
v 0.017054 0.192799 -0.218750
v 0.017054 0.192799 0.218750
v -0.113390 1.121167 0.218750
v -0.051498 1.129864 0.218750
v 0.078945 0.201496 0.218750
v 0.078945 0.201496 -0.218750
v -0.051498 1.129864 -0.218750
v 0.113390 1.121167 0.218750
v -0.017054 0.192799 0.218750
v -0.017054 0.192799 -0.218750
v 0.113390 1.121168 -0.218750
v 0.051498 1.129864 -0.218750
v -0.078945 0.201496 -0.218750
v -0.078945 0.201496 0.218750
v 0.051498 1.129864 0.218750
v 0.218750 1.129859 0.051500
v 0.218750 0.201478 -0.078944
v -0.218750 0.201478 -0.078944
v -0.218750 1.129859 0.051500
v -0.218750 1.121163 0.113392
v -0.218750 0.192782 -0.017052
v 0.218750 0.192782 -0.017052
v 0.218750 1.121163 0.113392
v 0.343750 1.312500 0.406250
v 0.343750 1.250000 0.406250
v 0.406250 1.250000 0.406250
v 0.406250 1.312500 0.406250
v 0.406250 1.312500 0.343750
v 0.406250 1.250000 0.343750
v 0.343750 1.250000 0.343750
v 0.343750 1.312500 0.343750
v -0.406250 1.312500 0.406250
v -0.406250 1.250000 0.406250
v -0.343750 1.250000 0.406250
v -0.343750 1.312500 0.406250
v -0.343750 1.312500 0.343750
v -0.343750 1.250000 0.343750
v -0.406250 1.250000 0.343750
v -0.406250 1.312500 0.343750
v 0.343750 1.312500 -0.343750
v 0.343750 1.250000 -0.343750
v 0.406250 1.250000 -0.343750
v 0.406250 1.312500 -0.343750
v 0.406250 1.312500 -0.406250
v 0.406250 1.250000 -0.406250
v 0.343750 1.250000 -0.406250
v 0.343750 1.312500 -0.406250
v -0.406250 1.312500 -0.343750
v -0.406250 1.250000 -0.343750
v -0.343750 1.250000 -0.343750
v -0.343750 1.312500 -0.343750
v -0.343750 1.312500 -0.406250
v -0.343750 1.250000 -0.406250
v -0.406250 1.250000 -0.406250
v -0.406250 1.312500 -0.406250
vt 0.062500 0.937500
vt 0.062500 0.890625
vt 0.125000 0.890625
vt 0.125000 0.937500
vt 0.187500 0.937500
vt 0.187500 0.890625
vt 0.250000 0.890625
vt 0.250000 0.937500
vt 0.062500 1.000000
vt 0.125000 1.000000
vt 0.187500 1.000000
vt 0.000000 0.937500
vt 0.000000 0.890625
vt 0.265625 0.781250
vt 0.265625 0.765625
vt 0.484375 0.765625
vt 0.484375 0.781250
vt 0.703125 0.781250
vt 0.703125 0.765625
vt 0.921875 0.765625
vt 0.921875 0.781250
vt 0.265625 1.000000
vt 0.484375 1.000000
vt 0.703125 1.000000
vt 0.046875 0.781250
vt 0.046875 0.765625
vt 0.046875 0.437500
vt 0.046875 0.203125
vt 0.093750 0.203125
vt 0.093750 0.437500
vt 0.140625 0.437500
vt 0.140625 0.203125
vt 0.187500 0.203125
vt 0.187500 0.437500
vt 0.046875 0.484375
vt 0.093750 0.484375
vt 0.140625 0.484375
vt 0.000000 0.437500
vt 0.000000 0.203125
vt 0.203125 0.015625
vt 0.203125 0.000000
vt 0.250000 0.000000
vt 0.250000 0.015625
vt 0.437500 0.015625
vt 0.437500 0.000000
vt 0.484375 0.000000
vt 0.484375 0.015625
vt 0.203125 0.203125
vt 0.250000 0.203125
vt 0.296875 0.015625
vt 0.296875 0.203125
vt 0.015625 0.015625
vt 0.015625 0.000000
vt 0.234375 0.234375
vt 0.234375 0.218750
vt 0.265625 0.218750
vt 0.265625 0.234375
vt 0.296875 0.234375
vt 0.296875 0.218750
vt 0.328125 0.218750
vt 0.328125 0.234375
vt 0.234375 0.265625
vt 0.265625 0.265625
vt 0.296875 0.265625
vt 0.203125 0.234375
vt 0.203125 0.218750
vt 0.281250 0.312500
vt 0.281250 0.296875
vt 0.359375 0.296875
vt 0.359375 0.312500
vt 0.437500 0.312500
vt 0.437500 0.296875
vt 0.515625 0.296875
vt 0.515625 0.312500
vt 0.281250 0.390625
vt 0.359375 0.390625
vt 0.437500 0.390625
vt 0.203125 0.312500
vt 0.203125 0.296875
vt 0.015625 0.734375
vt 0.015625 0.500000
vt 0.125000 0.500000
vt 0.125000 0.734375
vt 0.140625 0.734375
vt 0.140625 0.500000
vt 0.250000 0.500000
vt 0.250000 0.734375
vt 0.015625 0.750000
vt 0.125000 0.750000
vt 0.234375 0.734375
vt 0.234375 0.750000
vt 0.000000 0.734375
vt 0.000000 0.500000
vt 0.218750 0.250000
vt 0.218750 0.234375
vt 0.234375 0.250000
vt 0.250000 0.250000
vt 0.250000 0.234375
vt 0.265625 0.250000
vt 0.218750 0.265625
vt 0.250000 0.265625
vt 0.203125 0.250000
vn 0.000000 -0.000000 1.000000
vn 0.000000 0.000000 -1.000000
vn 0.000000 1.000000 0.000000
vn 0.000000 -1.000000 -0.000000
vn 1.000000 0.000000 0.000000
vn -1.000000 0.000000 0.000000
vn 0.000000 -0.139100 0.990300
vn 0.000000 0.139100 -0.990300
vn -0.139100 0.980600 0.137800
vn 0.139100 -0.980600 -0.137800
vn 0.990300 0.137800 0.019400
vn -0.990300 -0.137800 -0.019400
vn -0.000000 0.139100 0.990300
vn -0.000000 -0.139100 -0.990300
vn -0.139100 0.980600 -0.137800
vn 0.139100 -0.980600 0.137800
vn 0.990300 0.137800 -0.019400
vn -0.990300 -0.137800 0.019400
vn 0.139100 0.980600 -0.137800
vn -0.139100 -0.980600 0.137800
vn 0.990300 -0.137800 0.019400
vn -0.990300 0.137800 -0.019400
vn 0.139100 0.980600 0.137800
vn -0.139100 -0.980600 -0.137800
vn 0.990300 -0.137800 -0.019400
vn -0.990300 0.137800 0.019400
vn 0.000000 0.990300 -0.139100
vn 0.000000 -0.990300 0.139100
vn -0.990300 -0.139100 -0.000000
vn 0.990300 0.139100 0.000000
vn -0.139100 0.990300 0.000000
vn 0.139100 -0.990300 0.000000
vn 0.990300 -0.139100 -0.000000
vn -0.990300 0.139100 0.000000
vn 0.139100 0.990300 0.000000
vn -0.139100 -0.990300 0.000000
vn 0.000000 0.990300 0.139100
vn 0.000000 -0.990300 -0.139100
usemtl None
s off
f 1/1/1 2/2/1 3/3/1 4/4/1
f 5/5/2 6/6/2 7/7/2 8/8/2
f 8/9/3 1/1/3 4/4/3 5/10/3
f 2/5/4 7/11/4 6/10/4 3/4/4
f 5/5/5 4/4/5 3/3/5 6/6/5
f 8/12/6 7/13/6 2/2/6 1/1/6
f 9/1/1 10/2/1 11/3/1 12/4/1
f 13/5/2 14/6/2 15/7/2 16/8/2
f 16/9/3 9/1/3 12/4/3 13/10/3
f 10/5/4 15/11/4 14/10/4 11/4/4
f 13/5/5 12/4/5 11/3/5 14/6/5
f 16/12/6 15/13/6 10/2/6 9/1/6
f 17/1/1 18/2/1 19/3/1 20/4/1
f 21/5/2 22/6/2 23/7/2 24/8/2
f 24/9/3 17/1/3 20/4/3 21/10/3
f 18/5/4 23/11/4 22/10/4 19/4/4
f 21/5/5 20/4/5 19/3/5 22/6/5
f 24/12/6 23/13/6 18/2/6 17/1/6
f 25/1/1 26/2/1 27/3/1 28/4/1
f 29/5/2 30/6/2 31/7/2 32/8/2
f 32/9/3 25/1/3 28/4/3 29/10/3
f 26/5/4 31/11/4 30/10/4 27/4/4
f 29/5/5 28/4/5 27/3/5 30/6/5
f 32/12/6 31/13/6 26/2/6 25/1/6
f 33/14/1 34/15/1 35/16/1 36/17/1
f 37/18/2 38/19/2 39/20/2 40/21/2
f 40/22/3 33/14/3 36/17/3 37/23/3
f 34/18/4 39/24/4 38/23/4 35/17/4
f 37/18/5 36/17/5 35/16/5 38/19/5
f 40/25/6 39/26/6 34/15/6 33/14/6
f 41/27/7 42/28/7 43/29/7 44/30/7
f 45/31/8 46/32/8 47/33/8 48/34/8
f 48/35/9 41/27/9 44/30/9 45/36/9
f 42/31/10 47/37/10 46/36/10 43/30/10
f 45/31/11 44/30/11 43/29/11 46/32/11
f 48/38/12 47/39/12 42/28/12 41/27/12
f 49/27/13 50/28/13 51/29/13 52/30/13
f 53/31/14 54/32/14 55/33/14 56/34/14
f 56/35/15 49/27/15 52/30/15 53/36/15
f 50/31/16 55/37/16 54/36/16 51/30/16
f 53/31/17 52/30/17 51/29/17 54/32/17
f 56/38/18 55/39/18 50/28/18 49/27/18
f 57/27/13 58/28/13 59/29/13 60/30/13
f 61/31/14 62/32/14 63/33/14 64/34/14
f 64/35/19 57/27/19 60/30/19 61/36/19
f 58/31/20 63/37/20 62/36/20 59/30/20
f 61/31/21 60/30/21 59/29/21 62/32/21
f 64/38/22 63/39/22 58/28/22 57/27/22
f 65/27/7 66/28/7 67/29/7 68/30/7
f 69/31/8 70/32/8 71/33/8 72/34/8
f 72/35/23 65/27/23 68/30/23 69/36/23
f 66/31/24 71/37/24 70/36/24 67/30/24
f 69/31/25 68/30/25 67/29/25 70/32/25
f 72/38/26 71/39/26 66/28/26 65/27/26
f 73/40/1 74/41/1 75/42/1 76/43/1
f 77/44/2 78/45/2 79/46/2 80/47/2
f 80/48/3 73/40/3 76/43/3 77/49/3
f 74/50/4 79/51/4 78/49/4 75/43/4
f 77/44/5 76/43/5 75/42/5 78/45/5
f 80/52/6 79/53/6 74/41/6 73/40/6
f 81/40/5 82/41/5 83/42/5 84/43/5
f 85/44/6 86/45/6 87/46/6 88/47/6
f 88/48/3 81/40/3 84/43/3 85/49/3
f 82/50/4 87/51/4 86/49/4 83/43/4
f 85/44/2 84/43/2 83/42/2 86/45/2
f 88/52/1 87/53/1 82/41/1 81/40/1
f 89/40/1 90/41/1 91/42/1 92/43/1
f 93/44/2 94/45/2 95/46/2 96/47/2
f 96/48/3 89/40/3 92/43/3 93/49/3
f 90/50/4 95/51/4 94/49/4 91/43/4
f 93/44/5 92/43/5 91/42/5 94/45/5
f 96/52/6 95/53/6 90/41/6 89/40/6
f 97/40/5 98/41/5 99/42/5 100/43/5
f 101/44/6 102/45/6 103/46/6 104/47/6
f 104/48/3 97/40/3 100/43/3 101/49/3
f 98/50/4 103/51/4 102/49/4 99/43/4
f 101/44/2 100/43/2 99/42/2 102/45/2
f 104/52/1 103/53/1 98/41/1 97/40/1
f 105/54/1 106/55/1 107/56/1 108/57/1
f 109/58/2 110/59/2 111/60/2 112/61/2
f 112/62/3 105/54/3 108/57/3 109/63/3
f 106/58/4 111/64/4 110/63/4 107/57/4
f 109/58/5 108/57/5 107/56/5 110/59/5
f 112/65/6 111/66/6 106/55/6 105/54/6
f 113/54/1 114/55/1 115/56/1 116/57/1
f 117/58/2 118/59/2 119/60/2 120/61/2
f 120/62/3 113/54/3 116/57/3 117/63/3
f 114/58/4 119/64/4 118/63/4 115/57/4
f 117/58/5 116/57/5 115/56/5 118/59/5
f 120/65/6 119/66/6 114/55/6 113/54/6
f 121/54/1 122/55/1 123/56/1 124/57/1
f 125/58/2 126/59/2 127/60/2 128/61/2
f 128/62/3 121/54/3 124/57/3 125/63/3
f 122/58/4 127/64/4 126/63/4 123/57/4
f 125/58/5 124/57/5 123/56/5 126/59/5
f 128/65/6 127/66/6 122/55/6 121/54/6
f 129/54/1 130/55/1 131/56/1 132/57/1
f 133/58/2 134/59/2 135/60/2 136/61/2
f 136/62/3 129/54/3 132/57/3 133/63/3
f 130/58/4 135/64/4 134/63/4 131/57/4
f 133/58/5 132/57/5 131/56/5 134/59/5
f 136/65/6 135/66/6 130/55/6 129/54/6
f 137/67/1 138/68/1 139/69/1 140/70/1
f 141/71/2 142/72/2 143/73/2 144/74/2
f 144/75/3 137/67/3 140/70/3 141/76/3
f 138/71/4 143/77/4 142/76/4 139/70/4
f 141/71/5 140/70/5 139/69/5 142/72/5
f 144/78/6 143/79/6 138/68/6 137/67/6
f 145/80/13 146/81/13 147/82/13 148/83/13
f 149/84/14 150/85/14 151/86/14 152/87/14
f 152/88/27 145/80/27 148/83/27 149/89/27
f 146/90/28 151/91/28 150/89/28 147/83/28
f 149/84/5 148/83/5 147/82/5 150/85/5
f 152/92/6 151/93/6 146/81/6 145/80/6
f 153/80/29 154/81/29 155/82/29 156/83/29
f 157/84/30 158/85/30 159/86/30 160/87/30
f 160/88/31 153/80/31 156/83/31 157/89/31
f 154/90/32 159/91/32 158/89/32 155/83/32
f 157/84/1 156/83/1 155/82/1 158/85/1
f 160/92/2 159/93/2 154/81/2 153/80/2
f 161/80/33 162/81/33 163/82/33 164/83/33
f 165/84/34 166/85/34 167/86/34 168/87/34
f 168/88/35 161/80/35 164/83/35 165/89/35
f 162/90/36 167/91/36 166/89/36 163/83/36
f 165/84/2 164/83/2 163/82/2 166/85/2
f 168/92/1 167/93/1 162/81/1 161/80/1
f 169/80/8 170/81/8 171/82/8 172/83/8
f 173/84/7 174/85/7 175/86/7 176/87/7
f 176/88/37 169/80/37 172/83/37 173/89/37
f 170/90/38 175/91/38 174/89/38 171/83/38
f 173/84/6 172/83/6 171/82/6 174/85/6
f 176/92/5 175/93/5 170/81/5 169/80/5
f 177/94/1 178/95/1 179/54/1 180/96/1
f 181/97/2 182/98/2 183/57/2 184/99/2
f 184/100/3 177/94/3 180/96/3 181/62/3
f 178/97/4 183/101/4 182/62/4 179/96/4
f 181/97/5 180/96/5 179/54/5 182/98/5
f 184/102/6 183/65/6 178/95/6 177/94/6
f 185/94/1 186/95/1 187/54/1 188/96/1
f 189/97/2 190/98/2 191/57/2 192/99/2
f 192/100/3 185/94/3 188/96/3 189/62/3
f 186/97/4 191/101/4 190/62/4 187/96/4
f 189/97/5 188/96/5 187/54/5 190/98/5
f 192/102/6 191/65/6 186/95/6 185/94/6
f 193/94/1 194/95/1 195/54/1 196/96/1
f 197/97/2 198/98/2 199/57/2 200/99/2
f 200/100/3 193/94/3 196/96/3 197/62/3
f 194/97/4 199/101/4 198/62/4 195/96/4
f 197/97/5 196/96/5 195/54/5 198/98/5
f 200/102/6 199/65/6 194/95/6 193/94/6
f 201/94/1 202/95/1 203/54/1 204/96/1
f 205/97/2 206/98/2 207/57/2 208/99/2
f 208/100/3 201/94/3 204/96/3 205/62/3
f 202/97/4 207/101/4 206/62/4 203/96/4
f 205/97/5 204/96/5 203/54/5 206/98/5
f 208/102/6 207/65/6 202/95/6 201/94/6
