# Blender v2.76 (sub 0) OBJ File: ''
# www.blender.org
mtllib BlockHellfireForge.mtl
o BlockHellfireForge.001
v -0.437500 0.125000 0.437500
v -0.437500 -0.000000 0.437500
v -0.187500 -0.000000 0.437500
v -0.187500 0.125000 0.437500
v -0.187500 0.125000 0.187500
v -0.187500 0.000000 0.187500
v -0.437500 0.000000 0.187500
v -0.437500 0.125000 0.187500
v -0.360319 0.495030 0.356977
v -0.399507 0.124125 0.395951
v -0.213034 0.104638 0.397998
v -0.173845 0.475543 0.359024
v -0.173845 0.455949 0.172551
v -0.213034 0.085044 0.211525
v -0.399507 0.104531 0.209477
v -0.360319 0.475436 0.170503
v 0.187500 0.125000 -0.187500
v 0.187500 0.000000 -0.187500
v 0.437500 0.000000 -0.187500
v 0.437500 0.125000 -0.187500
v 0.437500 0.125000 -0.437500
v 0.437500 0.000000 -0.437500
v 0.187500 0.000000 -0.437500
v 0.187500 0.125000 -0.437500
v 0.173845 0.455970 -0.172550
v 0.213033 0.085073 -0.211523
v 0.399505 0.104560 -0.209476
v 0.360316 0.475457 -0.170502
v 0.360316 0.495051 -0.356974
v 0.399505 0.124154 -0.395947
v 0.213033 0.104667 -0.397995
v 0.173845 0.475564 -0.359021
v -0.437500 0.125000 -0.187500
v -0.437500 0.000000 -0.187500
v -0.187500 0.000000 -0.187500
v -0.187500 0.125000 -0.187500
v -0.187500 0.125000 -0.437500
v -0.187500 0.000000 -0.437500
v -0.437500 0.000000 -0.437500
v -0.437500 0.125000 -0.437500
v -0.360319 0.475446 -0.170503
v -0.399507 0.104545 -0.209477
v -0.213034 0.085059 -0.211525
v -0.173845 0.455959 -0.172551
v -0.173845 0.475554 -0.359022
v -0.213034 0.104653 -0.397996
v -0.399507 0.124140 -0.395949
v -0.360319 0.495041 -0.356975
v 0.187500 0.125000 0.437500
v 0.187500 -0.000000 0.437500
v 0.437500 -0.000000 0.437500
v 0.437500 0.125000 0.437500
v 0.437500 0.125000 0.187500
v 0.437500 0.000000 0.187500
v 0.187500 0.000000 0.187500
v 0.187500 0.125000 0.187500
v 0.173845 0.475554 0.359023
v 0.213033 0.104653 0.397997
v 0.399505 0.124140 0.395949
v 0.360316 0.495041 0.356976
v 0.360316 0.475447 0.170502
v 0.399505 0.104546 0.209476
v 0.213033 0.085059 0.211524
v 0.173845 0.455960 0.172550
v -0.312500 0.687500 0.312500
v -0.312500 0.312500 0.312500
v 0.312500 0.312500 0.312500
v 0.312500 0.687500 0.312500
v 0.312500 0.687500 -0.312500
v 0.312500 0.312500 -0.312500
v -0.312500 0.312500 -0.312500
v -0.312500 0.687500 -0.312500
v -0.093750 0.750000 0.093750
v -0.093750 0.687500 0.093750
v 0.093750 0.687500 0.093750
v 0.093750 0.750000 0.093750
v 0.093750 0.750000 -0.093750
v 0.093750 0.687500 -0.093750
v -0.093750 0.687500 -0.093750
v -0.093750 0.750000 -0.093750
v -0.093833 0.749949 0.093750
v -0.182221 0.661561 0.093750
v -0.138027 0.617367 0.093750
v -0.049638 0.705755 0.093750
v -0.049638 0.705755 -0.093750
v -0.138027 0.617367 -0.093750
v -0.182221 0.661561 -0.093750
v -0.093833 0.749949 -0.093750
v 0.049638 0.705755 0.093750
v 0.138027 0.617367 0.093750
v 0.182221 0.661561 0.093750
v 0.093833 0.749949 0.093750
v 0.093833 0.749949 -0.093750
v 0.182221 0.661561 -0.093750
v 0.138027 0.617367 -0.093750
v 0.049638 0.705755 -0.093750
v -0.093750 0.749949 0.093832
v -0.093750 0.661561 0.182221
v 0.093750 0.661561 0.182221
v 0.093750 0.749949 0.093832
v 0.093750 0.705755 0.049638
v 0.093750 0.617367 0.138027
v -0.093750 0.617367 0.138027
v -0.093750 0.705755 0.049638
v -0.093750 0.705755 -0.049375
v -0.093750 0.617367 -0.137764
v 0.093750 0.617367 -0.137764
v 0.093750 0.705755 -0.049375
v 0.093750 0.749949 -0.093569
v 0.093750 0.661561 -0.181958
v -0.093750 0.661561 -0.181958
v -0.093750 0.749949 -0.093569
v -0.375000 0.750000 -0.312500
v -0.375000 0.375000 -0.312500
v 0.375000 0.375000 -0.312500
v 0.375000 0.750000 -0.312500
v 0.375000 0.750000 -0.437500
v 0.375000 0.375000 -0.437500
v -0.375000 0.375000 -0.437500
v -0.375000 0.750000 -0.437500
v -0.437500 0.750000 -0.375000
v -0.437500 0.375000 -0.375000
v -0.437500 0.375000 0.375000
v -0.437500 0.750000 0.375000
v -0.312500 0.750000 0.375000
v -0.312500 0.375000 0.375000
v -0.312500 0.375000 -0.375000
v -0.312500 0.750000 -0.375000
v 0.437500 0.750000 0.375000
v 0.437500 0.375000 0.375000
v 0.437500 0.375000 -0.375000
v 0.437500 0.750000 -0.375000
v 0.312500 0.750000 -0.375000
v 0.312500 0.375000 -0.375000
v 0.312500 0.375000 0.375000
v 0.312500 0.750000 0.375000
v 0.375000 0.750000 0.312500
v 0.375000 0.375000 0.312500
v -0.375000 0.375000 0.312500
v -0.375000 0.750000 0.312500
v -0.375000 0.750000 0.437500
v -0.375000 0.375000 0.437500
v 0.375000 0.375000 0.437500
v 0.375000 0.750000 0.437500
v 0.375000 0.875000 0.500000
v 0.375000 0.687500 0.500000
v 0.500000 0.687500 0.500000
v 0.500000 0.875000 0.500000
v 0.500000 0.875000 0.375000
v 0.500000 0.687500 0.375000
v 0.375000 0.687500 0.375000
v 0.375000 0.875000 0.375000
v 0.437500 0.937500 0.500000
v 0.437500 0.875000 0.500000
v 0.500000 0.875000 0.500000
v 0.500000 0.937500 0.500000
v 0.500000 0.937500 0.437500
v 0.500000 0.875000 0.437500
v 0.437500 0.875000 0.437500
v 0.437500 0.937500 0.437500
v 0.375000 0.875000 -0.375000
v 0.375000 0.687500 -0.375000
v 0.500000 0.687500 -0.375000
v 0.500000 0.875000 -0.375000
v 0.500000 0.875000 -0.500000
v 0.500000 0.687500 -0.500000
v 0.375000 0.687500 -0.500000
v 0.375000 0.875000 -0.500000
v 0.437500 0.937500 -0.437500
v 0.437500 0.875000 -0.437500
v 0.500000 0.875000 -0.437500
v 0.500000 0.937500 -0.437500
v 0.500000 0.937500 -0.500000
v 0.500000 0.875000 -0.500000
v 0.437500 0.875000 -0.500000
v 0.437500 0.937500 -0.500000
v -0.500000 0.875000 0.500000
v -0.500000 0.687500 0.500000
v -0.375000 0.687500 0.500000
v -0.375000 0.875000 0.500000
v -0.375000 0.875000 0.375000
v -0.375000 0.687500 0.375000
v -0.500000 0.687500 0.375000
v -0.500000 0.875000 0.375000
v -0.500000 0.937500 0.500000
v -0.500000 0.875000 0.500000
v -0.437500 0.875000 0.500000
v -0.437500 0.937500 0.500000
v -0.437500 0.937500 0.437500
v -0.437500 0.875000 0.437500
v -0.500000 0.875000 0.437500
v -0.500000 0.937500 0.437500
v -0.500000 0.875000 -0.375000
v -0.500000 0.687500 -0.375000
v -0.375000 0.687500 -0.375000
v -0.375000 0.875000 -0.375000
v -0.375000 0.875000 -0.500000
v -0.375000 0.687500 -0.500000
v -0.500000 0.687500 -0.500000
v -0.500000 0.875000 -0.500000
v -0.500000 0.937500 -0.437500
v -0.500000 0.875000 -0.437500
v -0.437500 0.875000 -0.437500
v -0.437500 0.937500 -0.437500
v -0.437500 0.937500 -0.500000
v -0.437500 0.875000 -0.500000
v -0.500000 0.875000 -0.500000
v -0.500000 0.937500 -0.500000
v -0.360319 0.495030 0.356977
v -0.399507 0.124125 0.395951
v -0.213034 0.104638 0.397998
v -0.173845 0.475543 0.359024
v -0.173845 0.455949 0.172551
v -0.213034 0.085044 0.211525
v -0.399507 0.104531 0.209477
v -0.360319 0.475436 0.170503
v 0.173845 0.455970 -0.172550
v 0.213033 0.085073 -0.211523
v 0.399505 0.104560 -0.209476
v 0.360316 0.475457 -0.170502
v 0.360316 0.495051 -0.356974
v 0.399505 0.124154 -0.395947
v 0.213033 0.104667 -0.397995
v 0.173845 0.475564 -0.359021
v -0.360319 0.475446 -0.170503
v -0.399507 0.104545 -0.209477
v -0.213034 0.085059 -0.211525
v -0.173845 0.455959 -0.172551
v -0.173845 0.475554 -0.359022
v -0.213034 0.104653 -0.397996
v -0.399507 0.124140 -0.395949
v -0.360319 0.495041 -0.356975
v 0.173845 0.475554 0.359023
v 0.213033 0.104653 0.397997
v 0.399505 0.124140 0.395949
v 0.360316 0.495041 0.356976
v 0.360316 0.475447 0.170502
v 0.399505 0.104546 0.209476
v 0.213033 0.085059 0.211524
v 0.173845 0.455960 0.172550
v -0.093750 0.750000 0.093750
v -0.093750 0.687500 0.093750
v 0.093750 0.687500 0.093750
v 0.093750 0.750000 0.093750
v 0.093750 0.750000 -0.093750
v 0.093750 0.687500 -0.093750
v -0.093750 0.687500 -0.093750
v -0.093750 0.750000 -0.093750
v -0.093833 0.749949 0.093750
v -0.182221 0.661561 0.093750
v -0.138027 0.617367 0.093750
v -0.049638 0.705755 0.093750
v -0.049638 0.705755 -0.093750
v -0.138027 0.617367 -0.093750
v -0.182221 0.661561 -0.093750
v -0.093833 0.749949 -0.093750
v 0.049638 0.705755 0.093750
v 0.138027 0.617367 0.093750
v 0.182221 0.661561 0.093750
v 0.093833 0.749949 0.093750
v 0.093833 0.749949 -0.093750
v 0.182221 0.661561 -0.093750
v 0.138027 0.617367 -0.093750
v 0.049638 0.705755 -0.093750
v -0.093750 0.749949 0.093832
v -0.093750 0.661561 0.182221
v 0.093750 0.661561 0.182221
v 0.093750 0.749949 0.093832
v 0.093750 0.705755 0.049638
v 0.093750 0.617367 0.138027
v -0.093750 0.617367 0.138027
v -0.093750 0.705755 0.049638
v -0.093750 0.705755 -0.049375
v -0.093750 0.617367 -0.137764
v 0.093750 0.617367 -0.137764
v 0.093750 0.705755 -0.049375
v 0.093750 0.749949 -0.093569
v 0.093750 0.661561 -0.181958
v -0.093750 0.661561 -0.181958
v -0.093750 0.749949 -0.093569
v -0.093833 0.749949 0.093750
v -0.182221 0.661561 0.093750
v -0.138027 0.617367 0.093750
v -0.049638 0.705755 0.093750
v -0.049638 0.705755 -0.093750
v -0.138027 0.617367 -0.093750
v -0.182221 0.661561 -0.093750
v -0.093833 0.749949 -0.093750
v 0.049638 0.705755 0.093750
v 0.138027 0.617367 0.093750
v 0.182221 0.661561 0.093750
v 0.093833 0.749949 0.093750
v 0.093833 0.749949 -0.093750
v 0.182221 0.661561 -0.093750
v 0.138027 0.617367 -0.093750
v 0.049638 0.705755 -0.093750
v -0.093750 0.749949 0.093832
v -0.093750 0.661561 0.182221
v 0.093750 0.661561 0.182221
v 0.093750 0.749949 0.093832
v 0.093750 0.705755 0.049638
v 0.093750 0.617367 0.138027
v -0.093750 0.617367 0.138027
v -0.093750 0.705755 0.049638
v -0.093750 0.705755 -0.049375
v -0.093750 0.617367 -0.137764
v 0.093750 0.617367 -0.137764
v 0.093750 0.705755 -0.049375
v 0.093750 0.749949 -0.093569
v 0.093750 0.661561 -0.181958
v -0.093750 0.661561 -0.181958
v -0.093750 0.749949 -0.093569
v 0.437500 0.937500 0.500000
v 0.437500 0.875000 0.500000
v 0.500000 0.875000 0.500000
v 0.500000 0.937500 0.500000
v 0.500000 0.937500 0.437500
v 0.500000 0.875000 0.437500
v 0.437500 0.875000 0.437500
v 0.437500 0.937500 0.437500
v 0.437500 0.937500 -0.437500
v 0.437500 0.875000 -0.437500
v 0.500000 0.875000 -0.437500
v 0.500000 0.937500 -0.437500
v 0.500000 0.937500 -0.500000
v 0.500000 0.875000 -0.500000
v 0.437500 0.875000 -0.500000
v 0.437500 0.937500 -0.500000
v -0.500000 0.937500 0.500000
v -0.500000 0.875000 0.500000
v -0.437500 0.875000 0.500000
v -0.437500 0.937500 0.500000
v -0.437500 0.937500 0.437500
v -0.437500 0.875000 0.437500
v -0.500000 0.875000 0.437500
v -0.500000 0.937500 0.437500
v -0.500000 0.937500 -0.437500
v -0.500000 0.875000 -0.437500
v -0.437500 0.875000 -0.437500
v -0.437500 0.937500 -0.437500
v -0.437500 0.937500 -0.500000
v -0.437500 0.875000 -0.500000
v -0.500000 0.875000 -0.500000
v -0.500000 0.937500 -0.500000
vt 0.062500 0.937500
vt 0.062500 0.906250
vt 0.125000 0.906250
vt 0.125000 0.937500
vt 0.187500 0.937500
vt 0.187500 0.906250
vt 0.250000 0.906250
vt 0.250000 0.937500
vt 0.062500 1.000000
vt 0.125000 1.000000
vt 0.187500 1.000000
vt 0.000000 0.937500
vt 0.000000 0.906250
vt 0.046875 0.843750
vt 0.046875 0.750000
vt 0.093750 0.750000
vt 0.093750 0.843750
vt 0.140625 0.843750
vt 0.140625 0.750000
vt 0.187500 0.750000
vt 0.187500 0.843750
vt 0.046875 0.890625
vt 0.093750 0.890625
vt 0.140625 0.890625
vt 0.000000 0.843750
vt 0.000000 0.750000
vt 0.531250 0.593750
vt 0.531250 0.500000
vt 0.687500 0.500000
vt 0.687500 0.593750
vt 0.843750 0.593750
vt 0.843750 0.500000
vt 1.000000 0.500000
vt 1.000000 0.593750
vt 0.531250 0.750000
vt 0.687500 0.750000
vt 0.843750 0.750000
vt 0.375000 0.593750
vt 0.375000 0.500000
vt 0.046875 0.593750
vt 0.046875 0.578125
vt 0.093750 0.578125
vt 0.093750 0.593750
vt 0.140625 0.593750
vt 0.140625 0.578125
vt 0.187500 0.578125
vt 0.187500 0.593750
vt 0.046875 0.640625
vt 0.093750 0.640625
vt 0.140625 0.640625
vt 0.000000 0.593750
vt 0.000000 0.578125
vt 0.250000 0.812500
vt 0.250000 0.781250
vt 0.265625 0.781250
vt 0.265625 0.812500
vt 0.312500 0.812500
vt 0.312500 0.781250
vt 0.328125 0.781250
vt 0.328125 0.812500
vt 0.250000 0.859375
vt 0.265625 0.859375
vt 0.281250 0.812500
vt 0.281250 0.859375
vt 0.203125 0.812500
vt 0.203125 0.781250
vt 0.218750 0.750000
vt 0.218750 0.718750
vt 0.265625 0.718750
vt 0.265625 0.750000
vt 0.281250 0.750000
vt 0.281250 0.718750
vt 0.328125 0.718750
vt 0.328125 0.750000
vt 0.218750 0.765625
vt 0.265625 0.765625
vt 0.312500 0.750000
vt 0.312500 0.765625
vt 0.203125 0.750000
vt 0.203125 0.718750
vt 0.296875 0.968750
vt 0.296875 0.875000
vt 0.484375 0.875000
vt 0.484375 0.968750
vt 0.515625 0.968750
vt 0.515625 0.875000
vt 0.703125 0.875000
vt 0.703125 0.968750
vt 0.296875 1.000000
vt 0.484375 1.000000
vt 0.671875 0.968750
vt 0.671875 1.000000
vt 0.265625 0.968750
vt 0.265625 0.875000
vt 0.031250 0.703125
vt 0.031250 0.656250
vt 0.062500 0.656250
vt 0.062500 0.703125
vt 0.093750 0.703125
vt 0.093750 0.656250
vt 0.125000 0.656250
vt 0.125000 0.703125
vt 0.031250 0.734375
vt 0.062500 0.734375
vt 0.093750 0.734375
vt 0.000000 0.703125
vt 0.000000 0.656250
vt 0.031250 0.687500
vt 0.046875 0.687500
vt 0.046875 0.703125
vt 0.062500 0.687500
vt 0.078125 0.687500
vt 0.078125 0.703125
vt 0.031250 0.718750
vt 0.046875 0.718750
vt 0.062500 0.718750
vt 0.015625 0.703125
vt 0.015625 0.687500
vn 0.000000 0.000000 1.000000
vn 0.000000 0.000000 -1.000000
vn 0.000000 1.000000 0.000000
vn 0.000000 -1.000000 -0.000000
vn 1.000000 0.000000 0.000000
vn -1.000000 0.000000 0.000000
vn 0.000000 0.104500 0.994500
vn -0.000000 -0.104500 -0.994500
vn 0.104500 0.989100 -0.103900
vn -0.104500 -0.989100 0.103900
vn 0.994500 -0.103900 0.010900
vn -0.994500 0.103900 -0.010900
vn 0.000000 -0.104500 0.994500
vn 0.000000 0.104500 -0.994500
vn -0.104500 0.989100 0.103900
vn 0.104500 -0.989100 -0.103900
vn 0.994500 0.103900 0.010900
vn -0.994500 -0.103900 -0.010900
vn 0.104500 0.989100 0.103900
vn -0.104500 -0.989100 -0.103900
vn 0.994500 -0.103900 -0.010900
vn -0.994500 0.103900 0.010900
vn -0.104500 0.989100 -0.103900
vn 0.104500 -0.989100 0.103900
vn 0.994500 0.103900 -0.010900
vn -0.994500 -0.103900 0.010900
vn 0.707100 0.707100 0.000000
vn -0.707100 -0.707100 0.000000
vn 0.707100 -0.707100 0.000000
vn -0.707100 0.707100 0.000000
vn 0.000000 0.707100 0.707100
vn 0.000000 -0.707100 -0.707100
vn 0.000000 0.707100 -0.707100
vn 0.000000 -0.707100 0.707100
usemtl None
#s off
f 1/1/1 2/2/1 3/3/1 4/4/1
f 5/5/2 6/6/2 7/7/2 8/8/2
f 8/9/3 1/1/3 4/4/3 5/10/3
f 2/5/4 7/11/4 6/10/4 3/4/4
f 5/5/5 4/4/5 3/3/5 6/6/5
f 8/12/6 7/13/6 2/2/6 1/1/6
f 9/14/7 10/15/7 11/16/7 12/17/7
f 13/18/8 14/19/8 15/20/8 16/21/8
f 16/22/9 9/14/9 12/17/9 13/23/9
f 10/18/10 15/24/10 14/23/10 11/17/10
f 13/18/11 12/17/11 11/16/11 14/19/11
f 16/25/12 15/26/12 10/15/12 9/14/12
f 17/1/1 18/2/1 19/3/1 20/4/1
f 21/5/2 22/6/2 23/7/2 24/8/2
f 24/9/3 17/1/3 20/4/3 21/10/3
f 18/5/4 23/11/4 22/10/4 19/4/4
f 21/5/5 20/4/5 19/3/5 22/6/5
f 24/12/6 23/13/6 18/2/6 17/1/6
f 25/14/13 26/15/13 27/16/13 28/17/13
f 29/18/14 30/19/14 31/20/14 32/21/14
f 32/22/15 25/14/15 28/17/15 29/23/15
f 26/18/16 31/24/16 30/23/16 27/17/16
f 29/18/17 28/17/17 27/16/17 30/19/17
f 32/25/18 31/26/18 26/15/18 25/14/18
f 33/1/1 34/2/1 35/3/1 36/4/1
f 37/5/2 38/6/2 39/7/2 40/8/2
f 40/9/3 33/1/3 36/4/3 37/10/3
f 34/5/4 39/11/4 38/10/4 35/4/4
f 37/5/5 36/4/5 35/3/5 38/6/5
f 40/12/6 39/13/6 34/2/6 33/1/6
f 41/14/13 42/15/13 43/16/13 44/17/13
f 45/18/14 46/19/14 47/20/14 48/21/14
f 48/22/19 41/14/19 44/17/19 45/23/19
f 42/18/20 47/24/20 46/23/20 43/17/20
f 45/18/21 44/17/21 43/16/21 46/19/21
f 48/25/22 47/26/22 42/15/22 41/14/22
f 49/1/1 50/2/1 51/3/1 52/4/1
f 53/5/2 54/6/2 55/7/2 56/8/2
f 56/9/3 49/1/3 52/4/3 53/10/3
f 50/5/4 55/11/4 54/10/4 51/4/4
f 53/5/5 52/4/5 51/3/5 54/6/5
f 56/12/6 55/13/6 50/2/6 49/1/6
f 57/14/7 58/15/7 59/16/7 60/17/7
f 61/18/8 62/19/8 63/20/8 64/21/8
f 64/22/23 57/14/23 60/17/23 61/23/23
f 58/18/24 63/24/24 62/23/24 59/17/24
f 61/18/25 60/17/25 59/16/25 62/19/25
f 64/25/26 63/26/26 58/15/26 57/14/26
f 65/27/1 66/28/1 67/29/1 68/30/1
f 69/31/2 70/32/2 71/33/2 72/34/2
f 72/35/3 65/27/3 68/30/3 69/36/3
f 66/31/4 71/37/4 70/36/4 67/30/4
f 69/31/5 68/30/5 67/29/5 70/32/5
f 72/38/6 71/39/6 66/28/6 65/27/6
f 73/40/1 74/41/1 75/42/1 76/43/1
f 77/44/2 78/45/2 79/46/2 80/47/2
f 80/48/3 73/40/3 76/43/3 77/49/3
f 74/44/4 79/50/4 78/49/4 75/43/4
f 77/44/5 76/43/5 75/42/5 78/45/5
f 80/51/6 79/52/6 74/41/6 73/40/6
f 81/53/1 82/54/1 83/55/1 84/56/1
f 85/57/2 86/58/2 87/59/2 88/60/2
f 88/61/27 81/53/27 84/56/27 85/62/27
f 82/63/28 87/64/28 86/62/28 83/56/28
f 85/57/29 84/56/29 83/55/29 86/58/29
f 88/65/30 87/66/30 82/54/30 81/53/30
f 89/53/1 90/54/1 91/55/1 92/56/1
f 93/57/2 94/58/2 95/59/2 96/60/2
f 96/61/30 89/53/30 92/56/30 93/62/30
f 90/63/29 95/64/29 94/62/29 91/56/29
f 93/57/27 92/56/27 91/55/27 94/58/27
f 96/65/28 95/66/28 90/54/28 89/53/28
f 97/67/31 98/68/31 99/69/31 100/70/31
f 101/71/32 102/72/32 103/73/32 104/74/32
f 104/75/33 97/67/33 100/70/33 101/76/33
f 98/77/34 103/78/34 102/76/34 99/70/34
f 101/71/5 100/70/5 99/69/5 102/72/5
f 104/79/6 103/80/6 98/68/6 97/67/6
f 105/67/34 106/68/34 107/69/34 108/70/34
f 109/71/33 110/72/33 111/73/33 112/74/33
f 112/75/31 105/67/31 108/70/31 109/76/31
f 106/77/32 111/78/32 110/76/32 107/70/32
f 109/71/5 108/70/5 107/69/5 110/72/5
f 112/79/6 111/80/6 106/68/6 105/67/6
f 113/81/1 114/82/1 115/83/1 116/84/1
f 117/85/2 118/86/2 119/87/2 120/88/2
f 120/89/3 113/81/3 116/84/3 117/90/3
f 114/91/4 119/92/4 118/90/4 115/84/4
f 117/85/5 116/84/5 115/83/5 118/86/5
f 120/93/6 119/94/6 114/82/6 113/81/6
f 121/81/6 122/82/6 123/83/6 124/84/6
f 125/85/5 126/86/5 127/87/5 128/88/5
f 128/89/3 121/81/3 124/84/3 125/90/3
f 122/91/4 127/92/4 126/90/4 123/84/4
f 125/85/1 124/84/1 123/83/1 126/86/1
f 128/93/2 127/94/2 122/82/2 121/81/2
f 129/81/5 130/82/5 131/83/5 132/84/5
f 133/85/6 134/86/6 135/87/6 136/88/6
f 136/89/3 129/81/3 132/84/3 133/90/3
f 130/91/4 135/92/4 134/90/4 131/84/4
f 133/85/2 132/84/2 131/83/2 134/86/2
f 136/93/1 135/94/1 130/82/1 129/81/1
f 137/81/2 138/82/2 139/83/2 140/84/2
f 141/85/1 142/86/1 143/87/1 144/88/1
f 144/89/3 137/81/3 140/84/3 141/90/3
f 138/91/4 143/92/4 142/90/4 139/84/4
f 141/85/6 140/84/6 139/83/6 142/86/6
f 144/93/5 143/94/5 138/82/5 137/81/5
f 145/95/1 146/96/1 147/97/1 148/98/1
f 149/99/2 150/100/2 151/101/2 152/102/2
f 152/103/3 145/95/3 148/98/3 149/104/3
f 146/99/4 151/105/4 150/104/4 147/98/4
f 149/99/5 148/98/5 147/97/5 150/100/5
f 152/106/6 151/107/6 146/96/6 145/95/6
f 153/95/1 154/108/1 155/109/1 156/110/1
f 157/98/2 158/111/2 159/112/2 160/113/2
f 160/114/3 153/95/3 156/110/3 157/115/3
f 154/98/4 159/116/4 158/115/4 155/110/4
f 157/98/5 156/110/5 155/109/5 158/111/5
f 160/117/6 159/118/6 154/108/6 153/95/6
f 161/95/1 162/96/1 163/97/1 164/98/1
f 165/99/2 166/100/2 167/101/2 168/102/2
f 168/103/3 161/95/3 164/98/3 165/104/3
f 162/99/4 167/105/4 166/104/4 163/98/4
f 165/99/5 164/98/5 163/97/5 166/100/5
f 168/106/6 167/107/6 162/96/6 161/95/6
f 169/95/1 170/108/1 171/109/1 172/110/1
f 173/98/2 174/111/2 175/112/2 176/113/2
f 176/114/3 169/95/3 172/110/3 173/115/3
f 170/98/4 175/116/4 174/115/4 171/110/4
f 173/98/5 172/110/5 171/109/5 174/111/5
f 176/117/6 175/118/6 170/108/6 169/95/6
f 177/95/1 178/96/1 179/97/1 180/98/1
f 181/99/2 182/100/2 183/101/2 184/102/2
f 184/103/3 177/95/3 180/98/3 181/104/3
f 178/99/4 183/105/4 182/104/4 179/98/4
f 181/99/5 180/98/5 179/97/5 182/100/5
f 184/106/6 183/107/6 178/96/6 177/95/6
f 185/95/1 186/108/1 187/109/1 188/110/1
f 189/98/2 190/111/2 191/112/2 192/113/2
f 192/114/3 185/95/3 188/110/3 189/115/3
f 186/98/4 191/116/4 190/115/4 187/110/4
f 189/98/5 188/110/5 187/109/5 190/111/5
f 192/117/6 191/118/6 186/108/6 185/95/6
f 193/95/1 194/96/1 195/97/1 196/98/1
f 197/99/2 198/100/2 199/101/2 200/102/2
f 200/103/3 193/95/3 196/98/3 197/104/3
f 194/99/4 199/105/4 198/104/4 195/98/4
f 197/99/5 196/98/5 195/97/5 198/100/5
f 200/106/6 199/107/6 194/96/6 193/95/6
f 201/95/1 202/108/1 203/109/1 204/110/1
f 205/98/2 206/111/2 207/112/2 208/113/2
f 208/114/3 201/95/3 204/110/3 205/115/3
f 202/98/4 207/116/4 206/115/4 203/110/4
f 205/98/5 204/110/5 203/109/5 206/111/5
f 208/117/6 207/118/6 202/108/6 201/95/6
f 209/14/7 210/15/7 211/16/7 212/17/7
f 213/18/8 214/19/8 215/20/8 216/21/8
f 216/22/9 209/14/9 212/17/9 213/23/9
f 210/18/10 215/24/10 214/23/10 211/17/10
f 213/18/11 212/17/11 211/16/11 214/19/11
f 216/25/12 215/26/12 210/15/12 209/14/12
f 217/14/13 218/15/13 219/16/13 220/17/13
f 221/18/14 222/19/14 223/20/14 224/21/14
f 224/22/15 217/14/15 220/17/15 221/23/15
f 218/18/16 223/24/16 222/23/16 219/17/16
f 221/18/17 220/17/17 219/16/17 222/19/17
f 224/25/18 223/26/18 218/15/18 217/14/18
f 225/14/13 226/15/13 227/16/13 228/17/13
f 229/18/14 230/19/14 231/20/14 232/21/14
f 232/22/19 225/14/19 228/17/19 229/23/19
f 226/18/20 231/24/20 230/23/20 227/17/20
f 229/18/21 228/17/21 227/16/21 230/19/21
f 232/25/22 231/26/22 226/15/22 225/14/22
f 233/14/7 234/15/7 235/16/7 236/17/7
f 237/18/8 238/19/8 239/20/8 240/21/8
f 240/22/23 233/14/23 236/17/23 237/23/23
f 234/18/24 239/24/24 238/23/24 235/17/24
f 237/18/25 236/17/25 235/16/25 238/19/25
f 240/25/26 239/26/26 234/15/26 233/14/26
f 241/40/1 242/41/1 243/42/1 244/43/1
f 245/44/2 246/45/2 247/46/2 248/47/2
f 248/48/3 241/40/3 244/43/3 245/49/3
f 242/44/4 247/50/4 246/49/4 243/43/4
f 245/44/5 244/43/5 243/42/5 246/45/5
f 248/51/6 247/52/6 242/41/6 241/40/6
f 249/53/1 250/54/1 251/55/1 252/56/1
f 253/57/2 254/58/2 255/59/2 256/60/2
f 256/61/27 249/53/27 252/56/27 253/62/27
f 250/63/28 255/64/28 254/62/28 251/56/28
f 253/57/29 252/56/29 251/55/29 254/58/29
f 256/65/30 255/66/30 250/54/30 249/53/30
f 257/53/1 258/54/1 259/55/1 260/56/1
f 261/57/2 262/58/2 263/59/2 264/60/2
f 264/61/30 257/53/30 260/56/30 261/62/30
f 258/63/29 263/64/29 262/62/29 259/56/29
f 261/57/27 260/56/27 259/55/27 262/58/27
f 264/65/28 263/66/28 258/54/28 257/53/28
f 265/67/31 266/68/31 267/69/31 268/70/31
f 269/71/32 270/72/32 271/73/32 272/74/32
f 272/75/33 265/67/33 268/70/33 269/76/33
f 266/77/34 271/78/34 270/76/34 267/70/34
f 269/71/5 268/70/5 267/69/5 270/72/5
f 272/79/6 271/80/6 266/68/6 265/67/6
f 273/67/34 274/68/34 275/69/34 276/70/34
f 277/71/33 278/72/33 279/73/33 280/74/33
f 280/75/31 273/67/31 276/70/31 277/76/31
f 274/77/32 279/78/32 278/76/32 275/70/32
f 277/71/5 276/70/5 275/69/5 278/72/5
f 280/79/6 279/80/6 274/68/6 273/67/6
f 281/53/1 282/54/1 283/55/1 284/56/1
f 285/57/2 286/58/2 287/59/2 288/60/2
f 288/61/27 281/53/27 284/56/27 285/62/27
f 282/63/28 287/64/28 286/62/28 283/56/28
f 285/57/29 284/56/29 283/55/29 286/58/29
f 288/65/30 287/66/30 282/54/30 281/53/30
f 289/53/1 290/54/1 291/55/1 292/56/1
f 293/57/2 294/58/2 295/59/2 296/60/2
f 296/61/30 289/53/30 292/56/30 293/62/30
f 290/63/29 295/64/29 294/62/29 291/56/29
f 293/57/27 292/56/27 291/55/27 294/58/27
f 296/65/28 295/66/28 290/54/28 289/53/28
f 297/67/31 298/68/31 299/69/31 300/70/31
f 301/71/32 302/72/32 303/73/32 304/74/32
f 304/75/33 297/67/33 300/70/33 301/76/33
f 298/77/34 303/78/34 302/76/34 299/70/34
f 301/71/5 300/70/5 299/69/5 302/72/5
f 304/79/6 303/80/6 298/68/6 297/67/6
f 305/67/34 306/68/34 307/69/34 308/70/34
f 309/71/33 310/72/33 311/73/33 312/74/33
f 312/75/31 305/67/31 308/70/31 309/76/31
f 306/77/32 311/78/32 310/76/32 307/70/32
f 309/71/5 308/70/5 307/69/5 310/72/5
f 312/79/6 311/80/6 306/68/6 305/67/6
f 313/95/1 314/108/1 315/109/1 316/110/1
f 317/98/2 318/111/2 319/112/2 320/113/2
f 320/114/3 313/95/3 316/110/3 317/115/3
f 314/98/4 319/116/4 318/115/4 315/110/4
f 317/98/5 316/110/5 315/109/5 318/111/5
f 320/117/6 319/118/6 314/108/6 313/95/6
f 321/95/1 322/108/1 323/109/1 324/110/1
f 325/98/2 326/111/2 327/112/2 328/113/2
f 328/114/3 321/95/3 324/110/3 325/115/3
f 322/98/4 327/116/4 326/115/4 323/110/4
f 325/98/5 324/110/5 323/109/5 326/111/5
f 328/117/6 327/118/6 322/108/6 321/95/6
f 329/95/1 330/108/1 331/109/1 332/110/1
f 333/98/2 334/111/2 335/112/2 336/113/2
f 336/114/3 329/95/3 332/110/3 333/115/3
f 330/98/4 335/116/4 334/115/4 331/110/4
f 333/98/5 332/110/5 331/109/5 334/111/5
f 336/117/6 335/118/6 330/108/6 329/95/6
f 337/95/1 338/108/1 339/109/1 340/110/1
f 341/98/2 342/111/2 343/112/2 344/113/2
f 344/114/3 337/95/3 340/110/3 341/115/3
f 338/98/4 343/116/4 342/115/4 339/110/4
f 341/98/5 340/110/5 339/109/5 342/111/5
f 344/117/6 343/118/6 338/108/6 337/95/6
