# Blender v2.76 (sub 0) OBJ File: ''
# www.blender.org
mtllib BlockIncenseAltar.mtl
o BlockIncenseAltar_(1)
v 0.659375 0.159375 0.871875
v 0.659375 -0.000000 0.871875
v 0.871875 -0.000000 0.871875
v 0.871875 0.159375 0.871875
v 0.871875 0.159375 0.659375
v 0.871875 -0.000000 0.659375
v 0.659375 -0.000000 0.659375
v 0.659375 0.159375 0.659375
v 0.659375 0.159375 0.340625
v 0.659375 0.000000 0.340625
v 0.871875 0.000000 0.340625
v 0.871875 0.159375 0.340625
v 0.871875 0.159375 0.128125
v 0.871875 0.000000 0.128125
v 0.659375 0.000000 0.128125
v 0.659375 0.159375 0.128125
v 0.128125 0.159375 0.871875
v 0.128125 -0.000000 0.871875
v 0.340625 -0.000000 0.871875
v 0.340625 0.159375 0.871875
v 0.340625 0.159375 0.659375
v 0.340625 -0.000000 0.659375
v 0.128125 -0.000000 0.659375
v 0.128125 0.159375 0.659375
v 0.128125 0.159375 0.340625
v 0.128125 0.000000 0.340625
v 0.340625 0.000000 0.340625
v 0.340625 0.159375 0.340625
v 0.340625 0.159375 0.128125
v 0.340625 0.000000 0.128125
v 0.128125 0.000000 0.128125
v 0.128125 0.159375 0.128125
v 0.128125 0.212500 0.871875
v 0.128125 0.159375 0.871875
v 0.871875 0.159375 0.871875
v 0.871875 0.212500 0.871875
v 0.871875 0.212500 0.128125
v 0.871875 0.159375 0.128125
v 0.128125 0.159375 0.128125
v 0.128125 0.212500 0.128125
v 0.314062 0.984629 0.371221
v 0.314062 0.195516 0.260344
v 0.685938 0.195516 0.260344
v 0.685938 0.984629 0.371221
v 0.685938 0.992021 0.318614
v 0.685938 0.202908 0.207737
v 0.314062 0.202908 0.207737
v 0.314062 0.992021 0.318614
v 0.628779 0.984629 0.685938
v 0.739656 0.195516 0.685938
v 0.792263 0.202908 0.685938
v 0.681387 0.992021 0.685938
v 0.681387 0.992021 0.314063
v 0.792263 0.202908 0.314063
v 0.739656 0.195516 0.314063
v 0.628779 0.984629 0.314063
v 0.318612 0.992017 0.685938
v 0.207735 0.202893 0.685938
v 0.260343 0.195502 0.685938
v 0.371220 0.984625 0.685938
v 0.371220 0.984626 0.314063
v 0.260343 0.195502 0.314063
v 0.207735 0.202893 0.314063
v 0.318612 0.992017 0.314063
v 0.314062 0.992017 0.681388
v 0.314062 0.202893 0.792265
v 0.685938 0.202893 0.792265
v 0.685938 0.992017 0.681388
v 0.685938 0.984625 0.628780
v 0.685938 0.195502 0.739657
v 0.314062 0.195502 0.739657
v 0.314062 0.984625 0.628780
v 0.576198 0.952884 0.733023
v 0.687075 0.171447 0.842819
v 0.844898 0.193406 0.839734
v 0.734021 0.974844 0.729938
v 0.734021 0.952669 0.572113
v 0.844898 0.171232 0.681909
v 0.687075 0.149272 0.684995
v 0.576198 0.930709 0.575199
v 0.576198 0.930713 0.424802
v 0.687075 0.149287 0.315005
v 0.844898 0.171246 0.318091
v 0.734021 0.952673 0.427888
v 0.734021 0.974849 0.270065
v 0.844898 0.193422 0.160268
v 0.687075 0.171463 0.157182
v 0.576198 0.952889 0.266979
v 0.265976 0.952668 0.427887
v 0.155100 0.171231 0.318088
v 0.312924 0.149272 0.315003
v 0.423802 0.930709 0.424801
v 0.423802 0.952884 0.266979
v 0.312924 0.171448 0.157181
v 0.155100 0.193407 0.160266
v 0.265976 0.974844 0.270064
v 0.265976 0.974840 0.729939
v 0.155100 0.193391 0.839737
v 0.312924 0.171432 0.842822
v 0.423802 0.952880 0.733024
v 0.423802 0.930704 0.575199
v 0.312924 0.149257 0.684997
v 0.155100 0.171216 0.681912
v 0.265976 0.952664 0.572113
v 0.181250 1.009375 0.818750
v 0.181250 0.956250 0.818750
v 0.340625 0.956250 0.818750
v 0.340625 1.009375 0.818750
v 0.340625 1.009375 0.181250
v 0.340625 0.956250 0.181250
v 0.181250 0.956250 0.181250
v 0.181250 1.009375 0.181250
v 0.659375 1.009375 0.818750
v 0.659375 0.956250 0.818750
v 0.659375 0.956250 0.659375
v 0.659375 1.009375 0.659375
v 0.340625 1.009375 0.659375
v 0.340625 0.956250 0.659375
v 0.340625 0.956250 0.818750
v 0.340625 1.009375 0.818750
v 0.659375 1.009375 0.818750
v 0.659375 0.956250 0.818750
v 0.818750 0.956250 0.818750
v 0.818750 1.009375 0.818750
v 0.818750 1.009375 0.181250
v 0.818750 0.956250 0.181250
v 0.659375 0.956250 0.181250
v 0.659375 1.009375 0.181250
v 0.659375 1.009375 0.340625
v 0.659375 0.956250 0.340625
v 0.659375 0.956250 0.181250
v 0.659375 1.009375 0.181250
v 0.340625 1.009375 0.181250
v 0.340625 0.956250 0.181250
v 0.340625 0.956250 0.340625
v 0.340625 1.009375 0.340625
v 0.739062 1.062500 0.845313
v 0.739062 1.009375 0.845313
v 0.845312 1.009375 0.845313
v 0.845312 1.062500 0.845313
v 0.845312 1.062500 0.739063
v 0.845312 1.009375 0.739063
v 0.739062 1.009375 0.739063
v 0.739062 1.062500 0.739063
v 0.792188 1.115625 0.845313
v 0.792188 1.062500 0.845313
v 0.845312 1.062500 0.845313
v 0.845312 1.115625 0.845313
v 0.845312 1.115625 0.792188
v 0.845312 1.062500 0.792188
v 0.792188 1.062500 0.792188
v 0.792188 1.115625 0.792188
v 0.154687 1.062500 0.845313
v 0.154687 1.009375 0.845313
v 0.260938 1.009375 0.845313
v 0.260938 1.062500 0.845313
v 0.260938 1.062500 0.739063
v 0.260938 1.009375 0.739063
v 0.154687 1.009375 0.739063
v 0.154687 1.062500 0.739063
v 0.154687 1.115625 0.845313
v 0.154687 1.062500 0.845313
v 0.207812 1.062500 0.845313
v 0.207812 1.115625 0.845313
v 0.207812 1.115625 0.792188
v 0.207812 1.062500 0.792188
v 0.154687 1.062500 0.792188
v 0.154687 1.115625 0.792188
v 0.739062 1.062500 0.260938
v 0.739062 1.009375 0.260938
v 0.845312 1.009375 0.260938
v 0.845312 1.062500 0.260938
v 0.845312 1.062500 0.154688
v 0.845312 1.009375 0.154688
v 0.739062 1.009375 0.154688
v 0.739062 1.062500 0.154688
v 0.792188 1.115625 0.207813
v 0.792188 1.062500 0.207813
v 0.845312 1.062500 0.207813
v 0.845312 1.115625 0.207813
v 0.845312 1.115625 0.154688
v 0.845312 1.062500 0.154688
v 0.792188 1.062500 0.154688
v 0.792188 1.115625 0.154688
v 0.154687 1.062500 0.260938
v 0.154687 1.009375 0.260938
v 0.260938 1.009375 0.260938
v 0.260938 1.062500 0.260938
v 0.260938 1.062500 0.154688
v 0.260938 1.009375 0.154688
v 0.154687 1.009375 0.154688
v 0.154687 1.062500 0.154688
v 0.154687 1.115625 0.207813
v 0.154687 1.062500 0.207813
v 0.207812 1.062500 0.207813
v 0.207812 1.115625 0.207813
v 0.207812 1.115625 0.154688
v 0.207812 1.062500 0.154688
v 0.154687 1.062500 0.154688
v 0.154687 1.115625 0.154688
v 0.367188 0.956250 0.632813
v 0.367188 0.903125 0.632813
v 0.632812 0.903125 0.632813
v 0.632812 0.956250 0.632813
v 0.632812 0.956250 0.367188
v 0.632812 0.903125 0.367188
v 0.367188 0.903125 0.367188
v 0.367188 0.956250 0.367188
v 0.314062 0.984629 0.371221
v 0.314062 0.195516 0.260344
v 0.685938 0.195516 0.260344
v 0.685938 0.984629 0.371221
v 0.685938 0.992021 0.318614
v 0.685938 0.202908 0.207737
v 0.314062 0.202908 0.207737
v 0.314062 0.992021 0.318614
v 0.628779 0.984629 0.685938
v 0.739656 0.195516 0.685938
v 0.792263 0.202908 0.685938
v 0.681387 0.992021 0.685938
v 0.681387 0.992021 0.314063
v 0.792263 0.202908 0.314063
v 0.739656 0.195516 0.314063
v 0.628779 0.984629 0.314063
v 0.318612 0.992017 0.685938
v 0.207735 0.202893 0.685938
v 0.260343 0.195502 0.685938
v 0.371220 0.984625 0.685938
v 0.371220 0.984626 0.314063
v 0.260343 0.195502 0.314063
v 0.207735 0.202893 0.314063
v 0.318612 0.992017 0.314063
v 0.314062 0.992017 0.681388
v 0.314062 0.202893 0.792265
v 0.685938 0.202893 0.792265
v 0.685938 0.992017 0.681388
v 0.685938 0.984625 0.628780
v 0.685938 0.195502 0.739657
v 0.314062 0.195502 0.739657
v 0.314062 0.984625 0.628780
v 0.792188 1.115625 0.845313
v 0.792188 1.062500 0.845313
v 0.845312 1.062500 0.845313
v 0.845312 1.115625 0.845313
v 0.845312 1.115625 0.792188
v 0.845312 1.062500 0.792188
v 0.792188 1.062500 0.792188
v 0.792188 1.115625 0.792188
v 0.154687 1.115625 0.845313
v 0.154687 1.062500 0.845313
v 0.207812 1.062500 0.845313
v 0.207812 1.115625 0.845313
v 0.207812 1.115625 0.792188
v 0.207812 1.062500 0.792188
v 0.154687 1.062500 0.792188
v 0.154687 1.115625 0.792188
v 0.792188 1.115625 0.207813
v 0.792188 1.062500 0.207813
v 0.845312 1.062500 0.207813
v 0.845312 1.115625 0.207813
v 0.845312 1.115625 0.154688
v 0.845312 1.062500 0.154688
v 0.792188 1.062500 0.154688
v 0.792188 1.115625 0.154688
v 0.154687 1.115625 0.207813
v 0.154687 1.062500 0.207813
v 0.207812 1.062500 0.207813
v 0.207812 1.115625 0.207813
v 0.207812 1.115625 0.154688
v 0.207812 1.062500 0.154688
v 0.154687 1.062500 0.154688
v 0.154687 1.115625 0.154688
vt 0.062500 0.937500
vt 0.062500 0.890625
vt 0.125000 0.890625
vt 0.125000 0.937500
vt 0.187500 0.937500
vt 0.187500 0.890625
vt 0.250000 0.890625
vt 0.250000 0.937500
vt 0.062500 1.000000
vt 0.125000 1.000000
vt 0.187500 1.000000
vt 0.000000 0.937500
vt 0.000000 0.890625
vt 0.265625 0.781250
vt 0.265625 0.765625
vt 0.484375 0.765625
vt 0.484375 0.781250
vt 0.703125 0.781250
vt 0.703125 0.765625
vt 0.921875 0.765625
vt 0.921875 0.781250
vt 0.265625 1.000000
vt 0.484375 1.000000
vt 0.703125 1.000000
vt 0.046875 0.781250
vt 0.046875 0.765625
vt 0.015625 0.734375
vt 0.015625 0.500000
vt 0.125000 0.500000
vt 0.125000 0.734375
vt 0.140625 0.734375
vt 0.140625 0.500000
vt 0.250000 0.500000
vt 0.250000 0.734375
vt 0.015625 0.750000
vt 0.125000 0.750000
vt 0.234375 0.734375
vt 0.234375 0.750000
vt 0.000000 0.734375
vt 0.000000 0.500000
vt 0.375000 0.640625
vt 0.375000 0.406250
vt 0.390625 0.406250
vt 0.390625 0.640625
vt 0.500000 0.640625
vt 0.500000 0.406250
vt 0.515625 0.406250
vt 0.515625 0.640625
vt 0.375000 0.750000
vt 0.390625 0.750000
vt 0.406250 0.640625
vt 0.406250 0.750000
vt 0.265625 0.640625
vt 0.265625 0.406250
vt 0.046875 0.437500
vt 0.046875 0.203125
vt 0.093750 0.203125
vt 0.093750 0.437500
vt 0.140625 0.437500
vt 0.140625 0.203125
vt 0.187500 0.203125
vt 0.187500 0.437500
vt 0.046875 0.484375
vt 0.093750 0.484375
vt 0.140625 0.484375
vt 0.000000 0.437500
vt 0.000000 0.203125
vt 0.203125 0.015625
vt 0.203125 0.000000
vt 0.250000 0.000000
vt 0.250000 0.015625
vt 0.437500 0.015625
vt 0.437500 0.000000
vt 0.484375 0.000000
vt 0.484375 0.015625
vt 0.203125 0.203125
vt 0.250000 0.203125
vt 0.296875 0.015625
vt 0.296875 0.203125
vt 0.015625 0.015625
vt 0.015625 0.000000
vt 0.593750 0.015625
vt 0.593750 0.000000
vt 0.640625 0.000000
vt 0.640625 0.015625
vt 0.734375 0.015625
vt 0.734375 0.000000
vt 0.781250 0.000000
vt 0.781250 0.015625
vt 0.593750 0.109375
vt 0.640625 0.109375
vt 0.687500 0.015625
vt 0.687500 0.109375
vt 0.500000 0.015625
vt 0.500000 0.000000
vt 0.234375 0.234375
vt 0.234375 0.218750
vt 0.265625 0.218750
vt 0.265625 0.234375
vt 0.296875 0.234375
vt 0.296875 0.218750
vt 0.328125 0.218750
vt 0.328125 0.234375
vt 0.234375 0.265625
vt 0.265625 0.265625
vt 0.296875 0.265625
vt 0.203125 0.234375
vt 0.203125 0.218750
vt 0.218750 0.250000
vt 0.218750 0.234375
vt 0.234375 0.250000
vt 0.250000 0.250000
vt 0.250000 0.234375
vt 0.265625 0.250000
vt 0.218750 0.265625
vt 0.250000 0.265625
vt 0.203125 0.250000
vt 0.281250 0.312500
vt 0.281250 0.296875
vt 0.359375 0.296875
vt 0.359375 0.312500
vt 0.437500 0.312500
vt 0.437500 0.296875
vt 0.515625 0.296875
vt 0.515625 0.312500
vt 0.281250 0.390625
vt 0.359375 0.390625
vt 0.437500 0.390625
vt 0.203125 0.312500
vt 0.203125 0.296875
vn 0.000000 0.000000 1.000000
vn 0.000000 0.000000 -1.000000
vn 0.000000 1.000000 0.000000
vn 0.000000 -1.000000 -0.000000
vn 1.000000 0.000000 0.000000
vn -1.000000 0.000000 0.000000
vn 0.000000 -0.139100 0.990300
vn 0.000000 0.139100 -0.990300
vn 0.000000 0.990300 0.139200
vn 0.000000 -0.990300 -0.139100
vn -0.139200 0.990300 0.000000
vn 0.139100 -0.990300 -0.000000
vn 0.990300 0.139100 0.000000
vn -0.990300 -0.139100 -0.000000
vn 0.139100 0.990300 0.000000
vn -0.139100 -0.990300 -0.000000
vn 0.990300 -0.139100 -0.000000
vn -0.990300 0.139100 0.000000
vn 0.000000 0.139100 0.990300
vn 0.000000 -0.139100 -0.990300
vn 0.000000 0.990300 -0.139200
vn 0.000000 -0.990300 0.139100
vn -0.139100 0.980600 -0.137800
vn 0.139100 -0.980600 0.137800
vn 0.990300 0.137800 -0.019400
vn -0.990300 -0.137800 0.019400
vn -0.139100 0.980600 0.137800
vn 0.139100 -0.980600 -0.137800
vn 0.990300 0.137800 0.019400
vn -0.990300 -0.137800 -0.019400
vn 0.139100 0.980600 0.137800
vn -0.139100 -0.980600 -0.137800
vn 0.990300 -0.137800 -0.019400
vn -0.990300 0.137800 0.019400
vn 0.139100 0.980600 -0.137800
vn -0.139100 -0.980600 0.137800
vn 0.990300 -0.137800 0.019400
vn -0.990300 0.137800 -0.019400
usemtl None
#s 1
f 1/1/1 2/2/1 3/3/1 4/4/1
f 5/5/2 6/6/2 7/7/2 8/8/2
f 8/9/3 1/1/3 4/4/3 5/10/3
f 2/5/4 7/11/4 6/10/4 3/4/4
f 5/5/5 4/4/5 3/3/5 6/6/5
f 8/12/6 7/13/6 2/2/6 1/1/6
f 9/1/1 10/2/1 11/3/1 12/4/1
f 13/5/2 14/6/2 15/7/2 16/8/2
f 16/9/3 9/1/3 12/4/3 13/10/3
f 10/5/4 15/11/4 14/10/4 11/4/4
f 13/5/5 12/4/5 11/3/5 14/6/5
f 16/12/6 15/13/6 10/2/6 9/1/6
f 17/1/1 18/2/1 19/3/1 20/4/1
f 21/5/2 22/6/2 23/7/2 24/8/2
f 24/9/3 17/1/3 20/4/3 21/10/3
f 18/5/4 23/11/4 22/10/4 19/4/4
f 21/5/5 20/4/5 19/3/5 22/6/5
f 24/12/6 23/13/6 18/2/6 17/1/6
f 25/1/1 26/2/1 27/3/1 28/4/1
f 29/5/2 30/6/2 31/7/2 32/8/2
f 32/9/3 25/1/3 28/4/3 29/10/3
f 26/5/4 31/11/4 30/10/4 27/4/4
f 29/5/5 28/4/5 27/3/5 30/6/5
f 32/12/6 31/13/6 26/2/6 25/1/6
f 33/14/1 34/15/1 35/16/1 36/17/1
f 37/18/2 38/19/2 39/20/2 40/21/2
f 40/22/3 33/14/3 36/17/3 37/23/3
f 34/18/4 39/24/4 38/23/4 35/17/4
f 37/18/5 36/17/5 35/16/5 38/19/5
f 40/25/6 39/26/6 34/15/6 33/14/6
f 41/27/7 42/28/7 43/29/7 44/30/7
f 45/31/8 46/32/8 47/33/8 48/34/8
f 48/35/9 41/27/9 44/30/9 45/36/9
f 42/37/10 47/38/10 46/36/10 43/30/10
f 45/31/5 44/30/5 43/29/5 46/32/5
f 48/39/6 47/40/6 42/28/6 41/27/6
f 49/41/1 50/42/1 51/43/1 52/44/1
f 53/45/2 54/46/2 55/47/2 56/48/2
f 56/49/11 49/41/11 52/44/11 53/50/11
f 50/51/12 55/52/12 54/50/12 51/44/12
f 53/45/13 52/44/13 51/43/13 54/46/13
f 56/53/14 55/54/14 50/42/14 49/41/14
f 57/41/1 58/42/1 59/43/1 60/44/1
f 61/45/2 62/46/2 63/47/2 64/48/2
f 64/49/15 57/41/15 60/44/15 61/50/15
f 58/51/16 63/52/16 62/50/16 59/44/16
f 61/45/17 60/44/17 59/43/17 62/46/17
f 64/53/18 63/54/18 58/42/18 57/41/18
f 65/27/19 66/28/19 67/29/19 68/30/19
f 69/31/20 70/32/20 71/33/20 72/34/20
f 72/35/21 65/27/21 68/30/21 69/36/21
f 66/37/22 71/38/22 70/36/22 67/30/22
f 69/31/5 68/30/5 67/29/5 70/32/5
f 72/39/6 71/40/6 66/28/6 65/27/6
f 73/55/19 74/56/19 75/57/19 76/58/19
f 77/59/20 78/60/20 79/61/20 80/62/20
f 80/63/23 73/55/23 76/58/23 77/64/23
f 74/59/24 79/65/24 78/64/24 75/58/24
f 77/59/25 76/58/25 75/57/25 78/60/25
f 80/66/26 79/67/26 74/56/26 73/55/26
f 81/55/7 82/56/7 83/57/7 84/58/7
f 85/59/8 86/60/8 87/61/8 88/62/8
f 88/63/27 81/55/27 84/58/27 85/64/27
f 82/59/28 87/65/28 86/64/28 83/58/28
f 85/59/29 84/58/29 83/57/29 86/60/29
f 88/66/30 87/67/30 82/56/30 81/55/30
f 89/55/7 90/56/7 91/57/7 92/58/7
f 93/59/8 94/60/8 95/61/8 96/62/8
f 96/63/31 89/55/31 92/58/31 93/64/31
f 90/59/32 95/65/32 94/64/32 91/58/32
f 93/59/33 92/58/33 91/57/33 94/60/33
f 96/66/34 95/67/34 90/56/34 89/55/34
f 97/55/19 98/56/19 99/57/19 100/58/19
f 101/59/20 102/60/20 103/61/20 104/62/20
f 104/63/35 97/55/35 100/58/35 101/64/35
f 98/59/36 103/65/36 102/64/36 99/58/36
f 101/59/37 100/58/37 99/57/37 102/60/37
f 104/66/38 103/67/38 98/56/38 97/55/38
f 105/68/1 106/69/1 107/70/1 108/71/1
f 109/72/2 110/73/2 111/74/2 112/75/2
f 112/76/3 105/68/3 108/71/3 109/77/3
f 106/78/4 111/79/4 110/77/4 107/71/4
f 109/72/5 108/71/5 107/70/5 110/73/5
f 112/80/6 111/81/6 106/69/6 105/68/6
f 113/82/5 114/83/5 115/84/5 116/85/5
f 117/86/6 118/87/6 119/88/6 120/89/6
f 120/90/3 113/82/3 116/85/3 117/91/3
f 114/92/4 119/93/4 118/91/4 115/85/4
f 117/86/2 116/85/2 115/84/2 118/87/2
f 120/94/1 119/95/1 114/83/1 113/82/1
f 121/68/1 122/69/1 123/70/1 124/71/1
f 125/72/2 126/73/2 127/74/2 128/75/2
f 128/76/3 121/68/3 124/71/3 125/77/3
f 122/78/4 127/79/4 126/77/4 123/71/4
f 125/72/5 124/71/5 123/70/5 126/73/5
f 128/80/6 127/81/6 122/69/6 121/68/6
f 129/82/5 130/83/5 131/84/5 132/85/5
f 133/86/6 134/87/6 135/88/6 136/89/6
f 136/90/3 129/82/3 132/85/3 133/91/3
f 130/92/4 135/93/4 134/91/4 131/85/4
f 133/86/2 132/85/2 131/84/2 134/87/2
f 136/94/1 135/95/1 130/83/1 129/82/1
f 137/96/1 138/97/1 139/98/1 140/99/1
f 141/100/2 142/101/2 143/102/2 144/103/2
f 144/104/3 137/96/3 140/99/3 141/105/3
f 138/100/4 143/106/4 142/105/4 139/99/4
f 141/100/5 140/99/5 139/98/5 142/101/5
f 144/107/6 143/108/6 138/97/6 137/96/6
f 145/109/1 146/110/1 147/96/1 148/111/1
f 149/112/2 150/113/2 151/99/2 152/114/2
f 152/115/3 145/109/3 148/111/3 149/104/3
f 146/112/4 151/116/4 150/104/4 147/111/4
f 149/112/5 148/111/5 147/96/5 150/113/5
f 152/117/6 151/107/6 146/110/6 145/109/6
f 153/96/1 154/97/1 155/98/1 156/99/1
f 157/100/2 158/101/2 159/102/2 160/103/2
f 160/104/3 153/96/3 156/99/3 157/105/3
f 154/100/4 159/106/4 158/105/4 155/99/4
f 157/100/5 156/99/5 155/98/5 158/101/5
f 160/107/6 159/108/6 154/97/6 153/96/6
f 161/109/1 162/110/1 163/96/1 164/111/1
f 165/112/2 166/113/2 167/99/2 168/114/2
f 168/115/3 161/109/3 164/111/3 165/104/3
f 162/112/4 167/116/4 166/104/4 163/111/4
f 165/112/5 164/111/5 163/96/5 166/113/5
f 168/117/6 167/107/6 162/110/6 161/109/6
f 169/96/1 170/97/1 171/98/1 172/99/1
f 173/100/2 174/101/2 175/102/2 176/103/2
f 176/104/3 169/96/3 172/99/3 173/105/3
f 170/100/4 175/106/4 174/105/4 171/99/4
f 173/100/5 172/99/5 171/98/5 174/101/5
f 176/107/6 175/108/6 170/97/6 169/96/6
f 177/109/1 178/110/1 179/96/1 180/111/1
f 181/112/2 182/113/2 183/99/2 184/114/2
f 184/115/3 177/109/3 180/111/3 181/104/3
f 178/112/4 183/116/4 182/104/4 179/111/4
f 181/112/5 180/111/5 179/96/5 182/113/5
f 184/117/6 183/107/6 178/110/6 177/109/6
f 185/96/1 186/97/1 187/98/1 188/99/1
f 189/100/2 190/101/2 191/102/2 192/103/2
f 192/104/3 185/96/3 188/99/3 189/105/3
f 186/100/4 191/106/4 190/105/4 187/99/4
f 189/100/5 188/99/5 187/98/5 190/101/5
f 192/107/6 191/108/6 186/97/6 185/96/6
f 193/109/1 194/110/1 195/96/1 196/111/1
f 197/112/2 198/113/2 199/99/2 200/114/2
f 200/115/3 193/109/3 196/111/3 197/104/3
f 194/112/4 199/116/4 198/104/4 195/111/4
f 197/112/5 196/111/5 195/96/5 198/113/5
f 200/117/6 199/107/6 194/110/6 193/109/6
f 201/118/1 202/119/1 203/120/1 204/121/1
f 205/122/2 206/123/2 207/124/2 208/125/2
f 208/126/3 201/118/3 204/121/3 205/127/3
f 202/122/4 207/128/4 206/127/4 203/121/4
f 205/122/5 204/121/5 203/120/5 206/123/5
f 208/129/6 207/130/6 202/119/6 201/118/6
f 209/27/7 210/28/7 211/29/7 212/30/7
f 213/31/8 214/32/8 215/33/8 216/34/8
f 216/35/9 209/27/9 212/30/9 213/36/9
f 210/37/10 215/38/10 214/36/10 211/30/10
f 213/31/5 212/30/5 211/29/5 214/32/5
f 216/39/6 215/40/6 210/28/6 209/27/6
f 217/41/1 218/42/1 219/43/1 220/44/1
f 221/45/2 222/46/2 223/47/2 224/48/2
f 224/49/11 217/41/11 220/44/11 221/50/11
f 218/51/12 223/52/12 222/50/12 219/44/12
f 221/45/13 220/44/13 219/43/13 222/46/13
f 224/53/14 223/54/14 218/42/14 217/41/14
f 225/41/1 226/42/1 227/43/1 228/44/1
f 229/45/2 230/46/2 231/47/2 232/48/2
f 232/49/15 225/41/15 228/44/15 229/50/15
f 226/51/16 231/52/16 230/50/16 227/44/16
f 229/45/17 228/44/17 227/43/17 230/46/17
f 232/53/18 231/54/18 226/42/18 225/41/18
f 233/27/19 234/28/19 235/29/19 236/30/19
f 237/31/20 238/32/20 239/33/20 240/34/20
f 240/35/21 233/27/21 236/30/21 237/36/21
f 234/37/22 239/38/22 238/36/22 235/30/22
f 237/31/5 236/30/5 235/29/5 238/32/5
f 240/39/6 239/40/6 234/28/6 233/27/6
f 241/109/1 242/110/1 243/96/1 244/111/1
f 245/112/2 246/113/2 247/99/2 248/114/2
f 248/115/3 241/109/3 244/111/3 245/104/3
f 242/112/4 247/116/4 246/104/4 243/111/4
f 245/112/5 244/111/5 243/96/5 246/113/5
f 248/117/6 247/107/6 242/110/6 241/109/6
f 249/109/1 250/110/1 251/96/1 252/111/1
f 253/112/2 254/113/2 255/99/2 256/114/2
f 256/115/3 249/109/3 252/111/3 253/104/3
f 250/112/4 255/116/4 254/104/4 251/111/4
f 253/112/5 252/111/5 251/96/5 254/113/5
f 256/117/6 255/107/6 250/110/6 249/109/6
f 257/109/1 258/110/1 259/96/1 260/111/1
f 261/112/2 262/113/2 263/99/2 264/114/2
f 264/115/3 257/109/3 260/111/3 261/104/3
f 258/112/4 263/116/4 262/104/4 259/111/4
f 261/112/5 260/111/5 259/96/5 262/113/5
f 264/117/6 263/107/6 258/110/6 257/109/6
f 265/109/1 266/110/1 267/96/1 268/111/1
f 269/112/2 270/113/2 271/99/2 272/114/2
f 272/115/3 265/109/3 268/111/3 269/104/3
f 266/112/4 271/116/4 270/104/4 267/111/4
f 269/112/5 268/111/5 267/96/5 270/113/5
f 272/117/6 271/107/6 266/110/6 265/109/6
