# 3ds Max Wavefront OBJ Exporter v0.97b - (c)2007 guruware
# File Created: 07.08.2013 20:12:01

mtllib bloodlevel.mtl

#
# object headusOBJexport001
#

v  -1.2846 0.0000 2.0630
v  -1.2890 0.0000 -2.0628
v  -2.0627 0.0000 -1.2993
v  -2.0628 0.0000 1.2848
v  1.2845 0.0000 2.0630
v  -1.7911 0.0000 3.2857
v  1.7911 0.0000 3.2857
v  2.0628 0.0000 1.2848
v  3.2856 0.0000 1.7912
v  2.0628 0.0000 -1.2845
v  3.2856 0.0000 -1.7910
v  1.2846 0.0000 -2.0627
v  1.7911 0.0000 -3.2855
v  -1.7907 0.0000 -3.2857
v  -3.2854 0.0000 -1.8107
v  -3.2856 0.0000 1.7912
# 16 vertices

vn 0.0000 1.0000 -0.0000
# 1 vertex normals

vt 0.3045 0.1861 0.0000
vt 0.3038 0.8139 0.0000
vt 0.1861 0.6977 0.0000
vt 0.1861 0.3045 0.0000
vt 0.6955 0.1861 0.0000
vt 0.2274 -0.0000 0.0000
vt 0.7726 -0.0000 0.0000
vt 0.8139 0.3045 0.0000
vt 1.0000 0.2274 0.0000
vt 0.8139 0.6955 0.0000
vt 1.0000 0.7725 0.0000
vt 0.6955 0.8139 0.0000
vt 0.7726 1.0000 0.0000
vt 0.2275 1.0000 0.0000
vt 0.0000 0.7755 0.0000
vt 0.0000 0.2274 0.0000
# 16 texture coords

g headusOBJexport001
usemtl Material__46
s 1
f 1/1/1 2/2/1 3/3/1 4/4/1 
f 5/5/1 1/1/1 6/6/1 7/7/1 
f 8/8/1 5/5/1 7/7/1 9/9/1 
f 10/10/1 8/8/1 9/9/1 11/11/1 
f 12/12/1 10/10/1 11/11/1 13/13/1 
f 2/2/1 12/12/1 13/13/1 14/14/1 
f 3/3/1 2/2/1 14/14/1 15/15/1 
f 4/4/1 3/3/1 15/15/1 16/16/1 
f 1/1/1 4/4/1 16/16/1 6/6/1 
f 12/12/1 5/5/1 8/8/1 10/10/1 
f 5/5/1 12/12/1 2/2/1 1/1/1 
# 11 polygons

